<?xml version="1.0" encoding="utf-8"?>
<!-- Generator: Adobe Illustrator 24.0.2, SVG Export Plug-In . SVG Version: 6.00 Build 0)  -->
<svg version="1.1" id="Layer_1" xmlns="http://www.w3.org/2000/svg" xmlns:xlink="http://www.w3.org/1999/xlink" x="0px" y="0px"
	 viewBox="0 0 500 292.4" style="enable-background:new 0 0 500 292.4;" xml:space="preserve">
<style type="text/css">
	.st0{fill:#D1E6F7;}
	.st1{fill:#97CCEF;}
	.st2{fill:#F48020;}
	.st3{fill:#FFFFFF;}
	.st4{fill:#2BAA66;}
	.st5{fill:#568043;}
	.st6{fill:#B2D235;}
	.st7{fill:#FBAD18;}
	.st8{fill:#FFD67B;}
	.st9{fill:#DF9A34;}
	.st10{fill:#BAB930;}
	.st11{fill:#EFEA43;}
	.st12{fill:#9C9C39;}
	.st13{fill:#F57E25;}
	.st14{fill:#D7771A;}
	.st15{fill:#AD843A;}
</style>
<g id="BACKGROUND">
	<rect y="-184" class="st0" width="500" height="500"/>
</g>
<g id="OBJECTS">
	<g>
		<path class="st1" d="M348.4,11.6c-68.3,0-123.7,55.4-123.7,123.7c0,68.3,55.4,123.7,123.7,123.7s123.7-55.4,123.7-123.7
			C472.1,67,416.8,11.6,348.4,11.6z M420.9,214.8c-1.4-0.9-3.2-0.9-4.5,0.2c-1.4,1.1-1.7,3-1,4.5c-4,3.2-8.2,6.1-12.6,8.6
			c-1.1-1.3-3-1.6-4.6-0.8c-1.6,0.8-2.4,2.7-1.9,4.3c-5.2,2.6-10.7,4.8-16.4,6.5c-0.8-1.5-2.5-2.3-4.3-1.9c-1.8,0.5-2.9,2-2.8,3.8
			c-4.9,1.1-9.9,1.9-15,2.4c-0.4-1.7-2-2.9-3.8-2.8c-1.9,0.1-3.3,1.5-3.6,3.2c-0.7,0-1.4,0-2.1,0c-5.2,0-10.4-0.4-15.4-1.1
			c0-1.8-1.3-3.3-3-3.6c-1.8-0.4-3.6,0.7-4.2,2.3c-5-1.1-9.9-2.5-14.6-4.3c0.4-1.8-0.5-3.6-2.2-4.4c-1.8-0.8-3.8,0-4.7,1.6
			c-5.4-2.4-10.5-5.3-15.3-8.5c0.8-1.6,0.4-3.6-1.1-4.7c-1.5-1.1-3.6-0.9-4.9,0.4c-4-3.1-7.9-6.5-11.4-10.2c1.2-1.4,1.3-3.5,0-5
			c-1.3-1.5-3.5-1.7-5-0.5c-3.8-4.4-7.2-9.2-10.2-14.2c1.5-1.1,2.1-3.1,1.1-4.9c-0.9-1.7-3-2.4-4.8-1.7c-2.3-4.5-4.3-9.3-6-14.1
			c1.8-0.7,2.8-2.7,2.3-4.5c-0.6-1.9-2.5-3-4.4-2.6c-1.5-5.6-2.5-11.3-3.1-17.2c1.9-0.3,3.3-1.9,3.2-3.9c-0.1-2-1.7-3.5-3.7-3.6
			c0-1,0-1.9,0-2.9c0-4.2,0.3-8.4,0.7-12.5c1.9,0.1,3.7-1.2,4-3.1c0.3-2-1-3.8-2.9-4.3c1.1-5.8,2.6-11.4,4.6-16.8
			c1.9,0.6,3.9-0.3,4.6-2.1c0.8-1.9-0.1-4-1.9-4.8c2.1-4.7,4.5-9.2,7.2-13.5c1.7,1,3.8,0.5,5-1.1c1.1-1.6,0.8-3.8-0.7-5.1
			c3.5-4.7,7.3-9.1,11.4-13.2c1.4,1.3,3.6,1.4,5.1,0c1.5-1.3,1.6-3.6,0.4-5.1c3.9-3.3,8-6.4,12.3-9.1c1.1,1.5,3.2,2,4.9,1
			c1.7-1,2.3-3.1,1.5-4.8c5.1-2.8,10.4-5.1,16-7c0.7,1.7,2.7,2.7,4.5,2.1c1.9-0.6,3-2.5,2.6-4.4c7.5-2,15.4-3.3,23.5-3.6
			c0.3,1.8,1.8,3.2,3.7,3.2c1.9,0,3.5-1.4,3.7-3.2c5.9,0.1,11.7,0.8,17.4,1.9c-0.1,1.8,1,3.5,2.9,4c1.9,0.4,3.7-0.6,4.4-2.3
			c5,1.3,9.8,3,14.4,4.9c-0.4,1.7,0.4,3.5,2,4.3c1.7,0.8,3.6,0.3,4.7-1.2c5.2,2.7,10.2,5.8,14.9,9.2c-0.8,1.6-0.4,3.5,1,4.7
			c1.4,1.1,3.5,1.1,4.8-0.1c3.9,3.3,7.5,6.9,10.9,10.6c-1,1.4-1,3.3,0.1,4.6c1.1,1.4,3,1.8,4.6,1c3.6,4.6,6.8,9.6,9.6,14.8
			c-1.3,1.1-1.8,3-1,4.5c0.8,1.6,2.6,2.4,4.3,2c2.1,4.6,3.9,9.4,5.3,14.3c-1.5,0.8-2.3,2.5-1.8,4.2c0.4,1.7,2,2.8,3.6,2.9
			c1.3,5.7,2,11.5,2.4,17.5c-1.6,0.5-2.8,1.9-2.7,3.6c0,1.8,1.2,3.2,2.9,3.6c-0.1,5.2-0.5,10.3-1.3,15.2c-1.6,0.1-3.1,1.3-3.4,3
			c-0.4,1.7,0.5,3.4,2,4.1c-1.3,5.8-3.1,11.5-5.4,16.9c-1.6-0.3-3.3,0.6-4,2.1c-0.7,1.6-0.3,3.4,1,4.5c-2.3,4.6-4.8,9-7.7,13.2
			c-1.5-0.6-3.3-0.1-4.4,1.2c-1.1,1.4-1,3.3,0.1,4.6C429.3,206.5,425.3,210.8,420.9,214.8z"/>
		<path class="st1" d="M412.9,178c-6.5-4.7-13.2-9.3-19.9-13.8c-6.7-4.5-13.5-8.9-20.4-13.1c-4.5-2.8-9-5.5-13.6-8.1
			c0.3-0.4,0.6-0.9,0.9-1.3c4.8,2.2,9.7,4.3,14.6,6.3c7.5,3.1,15,6,22.5,8.9c7.6,2.8,15.2,5.5,22.9,8c7.7,2.6,15.4,5,23.2,7
			c-7.3-3.6-14.7-6.8-22.2-9.9c-7.5-3.1-15-6-22.6-8.9c-7.6-2.8-15.2-5.5-22.9-8c-5-1.7-10-3.3-15.1-4.8c0.2-0.5,0.4-1,0.5-1.5
			c5.2,1,10.4,1.9,15.6,2.8c8,1.3,16,2.4,24,3.4c8,1,16,1.9,24.1,2.6c8,0.7,16.1,1.3,24.2,1.5c-7.9-1.8-15.9-3.2-23.9-4.5
			c-8-1.3-16-2.4-24-3.4c-8-1-16-1.9-24.1-2.6c-5.2-0.5-10.5-0.9-15.7-1.1c0.1-0.5,0.1-1,0.2-1.6c5.3-0.2,10.5-0.5,15.8-0.9
			c8.1-0.6,16.1-1.3,24.1-2.2s16-1.9,24-3c8-1.1,16-2.5,23.9-4.1c-8.1,0.1-16.2,0.5-24.3,1.1c-8.1,0.6-16.1,1.3-24.1,2.2
			c-8,0.9-16,1.9-24,3c-5.2,0.8-10.3,1.6-15.5,2.5c0-0.5-0.1-1.1-0.2-1.6c5.1-1.4,10.1-2.9,15.1-4.5c7.7-2.4,15.4-5,23-7.7
			c7.6-2.7,15.2-5.5,22.7-8.5c7.5-3,15-6.1,22.3-9.5c-7.9,1.9-15.6,4.2-23.3,6.7c-7.7,2.4-15.4,5-23,7.7c-7.6,2.7-15.2,5.5-22.7,8.5
			c-4.8,1.9-9.6,3.9-14.4,6c-0.2-0.5-0.4-1-0.6-1.5c4.6-2.5,9.1-5.1,13.6-7.8c7-4.1,13.8-8.4,20.6-12.8c6.8-4.4,13.5-8.9,20.1-13.5
			c6.6-4.6,13.2-9.3,19.5-14.4c-7.2,3.7-14.2,7.7-21.2,11.9c-7,4.1-13.8,8.4-20.6,12.8c-6.8,4.4-13.5,8.9-20.1,13.5
			c-4.3,3-8.5,6-12.6,9.1c-0.3-0.5-0.6-0.9-0.9-1.3c3.9-3.5,7.6-7.1,11.4-10.7c5.8-5.6,11.5-11.4,17.1-17.2
			c5.6-5.8,11.1-11.7,16.5-17.8c5.4-6,10.7-12.1,15.7-18.5c-6.2,5.3-12.1,10.8-17.9,16.4c-5.8,5.6-11.5,11.4-17.1,17.2
			c-5.6,5.8-11.1,11.7-16.5,17.8c-3.4,3.8-6.8,7.7-10.1,11.7c-0.4-0.4-0.8-0.8-1.2-1.1c2.9-4.3,5.8-8.6,8.6-13
			c4.4-6.8,8.6-13.7,12.7-20.6c4.1-7,8.1-14,12-21.1c3.9-7.1,7.6-14.3,11-21.6c-4.8,6.6-9.3,13.3-13.6,20.1
			c-4.4,6.8-8.6,13.7-12.7,20.7c-4.1,7-8.1,14-11.9,21.1c-2.5,4.5-4.9,9.1-7.2,13.7c-0.5-0.3-0.9-0.5-1.4-0.8
			c1.9-4.8,3.6-9.7,5.3-14.6c2.7-7.6,5.2-15.3,7.6-23c2.4-7.7,4.7-15.5,6.8-23.3c2.1-7.8,4.1-15.6,5.7-23.6
			c-3.2,7.5-6,15.1-8.6,22.7c-2.7,7.6-5.2,15.3-7.6,23c-2.4,7.7-4.7,15.5-6.8,23.3c-1.3,5-2.6,9.9-3.8,14.9c-0.5-0.2-1-0.3-1.6-0.4
			c0.7-5.1,1.3-10.3,1.8-15.4c0.9-8,1.5-16.1,2.1-24.1c0.5-8.1,1-16.1,1.2-24.2c0.3-8.1,0.4-16.2,0.1-24.3c-1.4,8-2.3,16-3.2,24.1
			c-0.9,8-1.5,16.1-2.1,24.1c-0.5,8.1-1,16.1-1.2,24.2c-0.2,5.1-0.3,10.3-0.3,15.4c-0.4,0-0.8-0.1-1.2-0.1c-0.2,0-0.4,0-0.6,0
			c-0.5-5.1-1.2-10.3-1.9-15.4c-1.1-8-2.4-16-3.8-23.9c-1.4-8-2.9-15.9-4.6-23.8c-1.7-7.9-3.5-15.8-5.7-23.6
			c0.6,8.1,1.6,16.1,2.7,24.1c1.1,8,2.4,16,3.8,23.9c1.4,8,2.9,15.9,4.6,23.8c1.1,5,2.2,10,3.4,15c-0.5,0.1-1.1,0.2-1.6,0.4
			c-1.7-4.9-3.5-9.7-5.4-14.5c-2.9-7.5-6-15-9.2-22.4c-3.2-7.4-6.5-14.8-10-22.1c-3.5-7.3-7-14.6-11-21.7c2.5,7.7,5.3,15.3,8.2,22.9
			c2.9,7.5,6,15,9.2,22.4c3.2,7.4,6.5,14.8,10,22.1c2.2,4.6,4.5,9.3,6.8,13.8c-0.5,0.2-1,0.5-1.5,0.7c-2.8-4.4-5.7-8.7-8.6-12.9
			c-4.6-6.7-9.3-13.2-14.1-19.7s-9.7-12.9-14.8-19.2c-5-6.3-10.2-12.6-15.6-18.6c4.2,7,8.6,13.7,13.2,20.4
			c4.6,6.7,9.3,13.2,14.1,19.7c4.8,6.5,9.7,12.9,14.8,19.2c3.2,4,6.5,8,9.8,11.9c-0.4,0.3-0.9,0.7-1.3,1c-3.7-3.6-7.5-7.1-11.4-10.6
			c-6-5.4-12.1-10.7-18.3-15.9S297.5,89,291.1,84.1c-6.4-5-12.8-9.9-19.5-14.4c5.6,5.8,11.5,11.3,17.5,16.8
			c6,5.4,12.1,10.7,18.3,15.9c6.2,5.2,12.4,10.3,18.8,15.3c4,3.2,8.2,6.3,12.3,9.4c-0.4,0.4-0.7,0.9-1,1.3c-4.5-2.7-9-5.2-13.6-7.8
			c-7.1-3.9-14.2-7.7-21.4-11.3c-7.2-3.6-14.5-7.2-21.8-10.5c-7.3-3.4-14.7-6.6-22.3-9.6c6.8,4.4,13.9,8.4,21,12.3
			c7.1,3.9,14.2,7.6,21.4,11.3c7.2,3.6,14.5,7.2,21.8,10.5c4.7,2.2,9.4,4.3,14.2,6.3c-0.2,0.5-0.5,1-0.6,1.5c-5-1.6-10-3-15.1-4.4
			c-7.8-2.2-15.6-4.2-23.5-6.1c-7.9-1.9-15.7-3.7-23.7-5.2c-7.9-1.6-15.9-3.1-23.9-4.2c7.7,2.7,15.4,5,23.2,7.1
			c7.8,2.2,15.6,4.2,23.5,6.1c7.9,1.9,15.7,3.6,23.7,5.2c5.1,1,10.2,2,15.4,2.9c-0.1,0.5-0.2,1-0.3,1.6c-5.3-0.4-10.5-0.7-15.7-0.9
			c-8.1-0.3-16.1-0.5-24.2-0.5c-8.1,0-16.1,0.1-24.2,0.4c-8.1,0.3-16.1,0.7-24.2,1.4c8.1,0.8,16.2,1.3,24.2,1.6
			c8.1,0.3,16.1,0.5,24.2,0.5c8.1,0,16.1-0.1,24.2-0.4c5.2-0.2,10.4-0.4,15.7-0.8c0,0.5,0,1.1,0.1,1.6c-5.2,0.8-10.4,1.8-15.6,2.8
			c-7.9,1.5-15.8,3.3-23.7,5.1c-7.9,1.8-15.7,3.8-23.5,5.9c-7.8,2.1-15.6,4.4-23.3,7c8-1,16-2.5,23.9-4c7.9-1.5,15.8-3.3,23.7-5.1
			c7.9-1.8,15.7-3.8,23.5-5.9c5.1-1.4,10.1-2.8,15.1-4.4c0.1,0.5,0.3,1,0.5,1.5c-4.9,2-9.8,4.1-14.6,6.3
			c-7.4,3.3-14.6,6.8-21.9,10.4c-7.2,3.6-14.4,7.3-21.5,11.2c-7.1,3.8-14.1,7.8-21,12.1c7.6-2.9,15-6.1,22.4-9.4
			c7.4-3.3,14.7-6.8,21.9-10.4c7.2-3.6,14.4-7.3,21.5-11.2c4.6-2.5,9.2-5.1,13.8-7.8c0.2,0.5,0.5,0.9,0.8,1.4
			c-4.3,3.1-8.6,6.3-12.8,9.6c-6.4,4.9-12.7,10-18.9,15.2c-6.2,5.2-12.4,10.4-18.4,15.8c-6,5.4-12,10.9-17.7,16.7
			c6.7-4.5,13.2-9.4,19.6-14.3c6.4-4.9,12.7-10,18.9-15.2c6.2-5.2,12.3-10.4,18.3-15.8c4-3.5,7.9-7.1,11.7-10.8
			c0.3,0.4,0.7,0.8,1.1,1.1c-3.5,4-6.9,8.1-10.3,12.3c-5.1,6.3-10,12.6-14.9,19.1c-4.9,6.5-9.6,13-14.2,19.6
			c-4.6,6.6-9.1,13.3-13.4,20.3c5.5-6,10.7-12.2,15.8-18.5c5.1-6.3,10-12.7,14.9-19.1c4.8-6.5,9.6-13,14.2-19.6
			c3-4.4,6-8.8,8.9-13.2c0.4,0.3,0.9,0.6,1.3,0.9c-2.5,4.8-4.9,9.5-7.2,14.4c-3.5,7.3-6.9,14.6-10.1,22s-6.4,14.9-9.3,22.4
			c-3,7.5-5.8,15.1-8.3,22.8c4-7.1,7.6-14.3,11.1-21.6c3.5-7.3,6.9-14.6,10.1-22c3.2-7.4,6.4-14.9,9.3-22.4c2-5,3.9-9.9,5.6-15
			c0.5,0.2,1,0.4,1.5,0.6c-1.3,5.2-2.5,10.4-3.7,15.7c-1.8,7.9-3.3,15.8-4.8,23.8c-1.4,7.9-2.8,15.9-3.9,23.9
			c-1.2,8-2.2,16-2.8,24.1c2.3-7.8,4.1-15.7,5.8-23.6c1.8-7.9,3.3-15.8,4.8-23.8c1.4-7.9,2.8-15.9,3.9-23.9c0.8-5.3,1.5-10.6,2-15.9
			c0.5,0.1,1,0.2,1.6,0.2c-0.1,5.4-0.1,10.8,0,16.1c0.1,8.1,0.4,16.1,0.8,24.2c0.4,8.1,1,16.1,1.7,24.2c0.7,8.1,1.5,16.1,2.8,24.1
			c0.4-8.1,0.4-16.2,0.2-24.3c-0.1-8.1-0.4-16.1-0.8-24.2c-0.4-8.1-1-16.1-1.7-24.2c-0.5-5.3-1-10.6-1.7-15.9c0.5,0,1-0.1,1.6-0.1
			c1.1,5.3,2.4,10.5,3.7,15.7c2,7.8,4.1,15.6,6.4,23.4c2.3,7.8,4.7,15.5,7.2,23.1c2.5,7.7,5.2,15.3,8.3,22.8
			c-1.5-8-3.4-15.9-5.4-23.7c-2-7.8-4.1-15.6-6.4-23.4c-2.3-7.8-4.7-15.5-7.2-23.1c-1.7-5.1-3.4-10.1-5.3-15.1
			c0.5-0.1,1-0.3,1.5-0.5c2.3,4.9,4.8,9.6,7.2,14.4c3.7,7.2,7.6,14.2,11.6,21.3c4,7,8.1,14,12.4,20.9c4.2,6.9,8.6,13.7,13.3,20.3
			c-3.3-7.4-6.9-14.6-10.7-21.8c-3.7-7.2-7.6-14.3-11.6-21.3c-4-7-8.1-14-12.4-20.9c-2.8-4.5-5.7-9-8.6-13.5
			c0.5-0.3,0.9-0.5,1.4-0.8c3.4,4.2,6.8,8.3,10.3,12.3c5.3,6.1,10.7,12.1,16.2,18c5.5,5.9,11.1,11.8,16.8,17.5
			c5.7,5.7,11.5,11.3,17.6,16.7c-4.9-6.5-10.1-12.7-15.4-18.8c-5.3-6.1-10.7-12.1-16.2-18c-5.5-5.9-11.1-11.7-16.8-17.4
			c-3.8-3.8-7.6-7.5-11.5-11.1c0.4-0.3,0.8-0.7,1.1-1.1c4.2,3.3,8.5,6.5,12.9,9.6c6.5,4.7,13.2,9.3,19.9,13.8
			c6.7,4.5,13.5,8.9,20.4,13.1c6.9,4.3,13.8,8.4,21,12.2C425.9,187.5,419.4,182.7,412.9,178z"/>
	</g>
	<g>
		<g>
			<g>
				<path class="st5" d="M428.2,185.6h22.7c-0.1,1.1-0.3,2.1-0.5,3.3c-0.2,1.2-0.4,2.3-0.6,3.3c-1.3,5.1-3.5,8.2-3.5,8.2h-15.9h-2.2
					v-5.1L428.2,185.6L428.2,185.6z"/>
				<path class="st6" d="M428.2,195.2v5.1h-0.1H428h-2.3h-15.9c0,0-4.2-5.9-4.4-14.7h22.8L428.2,195.2L428.2,195.2z"/>
				<path class="st6" d="M428,156c0,0-0.2,0.1-0.6,0.4v-15.7h0.7v15.4C428.1,156,428,156,428,156z"/>
				<path class="st5" d="M428.2,140.6h0.7v15.9c-0.3-0.2-0.6-0.4-0.7-0.5V140.6z"/>
				<path class="st6" d="M405.5,183.2c0-0.7,0.1-1.4,0.2-2.1c1.7-9.6,10.7-16,17.8-21.7c0.9-0.7,1.7-1.4,2.4-1.9
					c0.7-0.5,1.3-1,1.7-1.2c0.3-0.3,0.5-0.4,0.6-0.4c0,0,0.1,0,0.2,0.1v1.3v23.4v4.8h-22.8c0-0.1,0-0.3,0-0.4
					C405.4,184.6,405.5,183.9,405.5,183.2z"/>
				<path class="st5" d="M428.9,156.6c0.4,0.3,0.8,0.6,1.3,1c9.3,7,21.7,15.2,20.7,28h-22.7v-4.8v-23.4v-1.3
					C428.4,156.2,428.6,156.3,428.9,156.6z"/>
			</g>
			<rect x="402.7" y="195.2" class="st5" width="51" height="79.2"/>
			<rect x="406" y="200.3" class="st5" width="44.4" height="74.1"/>
			<rect x="410.6" y="208" class="st6" width="35.2" height="66.4"/>
			<rect x="418.4" y="240.3" class="st5" width="19.7" height="34.1"/>
			<path class="st3" d="M422.1,251.8c0-0.1,0-0.2,0-0.3v-0.1l0,0c0.2-3.2,2.8-5.7,6.1-5.7c3.2,0,5.9,2.5,6.1,5.7h0v0.1
				c0,0.1,0,0.2,0,0.3c0,0.1,0,0.2,0,0.3v17.4h-12.2v-17.4C422.1,252.1,422.1,252,422.1,251.8z"/>
			<path class="st5" d="M425.8,214c0,1.4,1.1,2.5,2.5,2.5s2.5-1.1,2.5-2.5c0-1.4-1.1-2.5-2.5-2.5C426.9,211.6,425.8,212.7,425.8,214
				z"/>
			<path class="st5" d="M425.8,224c0,1.4,1.1,2.5,2.5,2.5s2.5-1.1,2.5-2.5c0-1.4-1.1-2.5-2.5-2.5C426.9,221.6,425.8,222.7,425.8,224
				z"/>
			<path class="st5" d="M425.8,234c0,1.4,1.1,2.5,2.5,2.5s2.5-1.1,2.5-2.5c0-1.4-1.1-2.5-2.5-2.5C426.9,231.6,425.8,232.7,425.8,234
				z"/>
		</g>
		<g>
			<path class="st7" d="M354.5,173.1L354.5,173.1L354.5,173.1l0.1-14.2c0,0,0,0,0,0s-0.3,0.2-0.7,0.5c-0.2,0.2-0.5,0.4-0.8,0.6
				c-2.3,1.8-5.1,3.9-5.7,6.9c0,0.2,0,0.4-0.1,0.7c0,0.2,0,0.4,0,0.6c0,2.9,1.4,4.8,1.4,4.8h0h5L354.5,173.1L354.5,173.1z"/>
			<path class="st8" d="M355.3,173.1h5.1c0,0,0.7-1,1.1-2.6c0.1-0.3,0.2-0.7,0.2-1c1.2-4.7-3.2-7.6-6.4-10c-0.3-0.2-0.6-0.4-0.7-0.5
				v14.2L355.3,173.1L355.3,173.1z"/>
			<rect x="354.6" y="200.8" class="st8" width="5.8" height="24.5"/>
			<polygon class="st8" points="354.6,173.1 354.6,197.5 360.4,197.5 360.4,173.1 360.4,173.1 355.3,173.1 			"/>
			<polygon class="st8" points="356,228.5 354.6,228.5 354.6,254.1 360.4,254.1 360.4,242.3 360.4,228.5 			"/>
			<polygon class="st7" points="354.6,173.1 354.6,173.1 354.5,173.1 353.8,173.1 348.8,173.1 348.8,197.5 354.6,197.5 			"/>
			<polygon class="st7" points="348.8,200.8 348.8,216 348.8,225.3 354.4,225.3 354.6,225.3 354.6,200.8 			"/>
			<rect x="348.8" y="257.3" class="st7" width="5.8" height="29"/>
			<rect x="348.8" y="228.5" class="st7" width="5.8" height="25.5"/>
			<rect x="347.1" y="225.3" class="st9" width="14.9" height="3.3"/>
			<rect x="347.2" y="254.1" class="st9" width="14.9" height="3.3"/>
			<polygon class="st9" points="360.4,197.5 360.3,197.5 354.6,197.5 348.8,197.5 347.1,197.5 347.1,200.8 348.8,200.8 354.6,200.8 
				360.3,200.8 360.4,200.8 362,200.8 362,197.5 			"/>
			<polygon class="st8" points="354.6,257.3 354.6,286.3 355.2,286.3 356,286.3 360.4,286.3 360.4,272.2 360.4,266.4 360.4,257.3 
							"/>
			<rect x="347.2" y="279.9" class="st9" width="14.9" height="6.4"/>
		</g>
		<g>
			<path class="st7" d="M317.3,231.1L317.3,231.1L317.3,231.1l0-8.4c0,0,0,0,0,0s-0.2,0.1-0.4,0.3c-0.1,0.1-0.3,0.2-0.5,0.4
				c-1.3,1.1-3,2.3-3.4,4.1c0,0.1,0,0.3,0,0.4s0,0.3,0,0.4c0,1.7,0.8,2.9,0.8,2.9h0h3L317.3,231.1L317.3,231.1z"/>
			<path class="st8" d="M317.8,231.1h3c0,0,0.4-0.6,0.7-1.5c0-0.2,0.1-0.4,0.1-0.6c0.7-2.8-1.9-4.5-3.8-5.9
				c-0.2-0.1-0.3-0.2-0.4-0.3v8.4H317.8z"/>
			<rect x="317.3" y="247.5" class="st8" width="3.4" height="14.5"/>
			<polygon class="st8" points="317.3,231.1 317.3,245.5 320.8,245.5 320.8,231.1 320.7,231.1 317.8,231.1 			"/>
			<polygon class="st8" points="318.1,263.9 317.3,263.9 317.3,279 320.8,279 320.8,272 320.8,263.9 			"/>
			<polygon class="st7" points="317.3,231.1 317.3,231.1 317.3,231.1 316.9,231.1 313.9,231.1 313.9,245.5 317.3,245.5 			"/>
			<polygon class="st7" points="313.9,247.5 313.9,256.5 313.9,262 317.2,262 317.3,262 317.3,247.5 			"/>
			<rect x="313.9" y="280.9" class="st7" width="3.4" height="17.1"/>
			<rect x="313.9" y="263.9" class="st7" width="3.4" height="15.1"/>
			<rect x="312.9" y="262" class="st9" width="8.8" height="1.9"/>
			<rect x="312.9" y="279" class="st9" width="8.8" height="1.9"/>
			<polygon class="st9" points="320.8,245.5 320.7,245.5 317.3,245.5 313.9,245.5 312.9,245.5 312.9,247.5 313.9,247.5 317.3,247.5 
				320.7,247.5 320.8,247.5 321.7,247.5 321.7,245.5 			"/>
			<polygon class="st8" points="317.3,280.9 317.3,298 317.7,298 318.1,298 320.8,298 320.8,289.7 320.8,286.3 320.8,280.9 			"/>
		</g>
		<path class="st7" d="M277,283.6v-4.4h0.8v-1.6H277v-5.7v-6.6h0.8v-1.6H277v-11.9h0.8v-1.6H277v-11.8h0c0,0,0.3-0.5,0.5-1.3
			c0-0.2,0.1-0.3,0.1-0.5c0.6-2.3-1.6-3.7-3.1-4.8c-0.2-0.1-0.3-0.2-0.3-0.2c0,0,0,0,0,0s-0.1,0.1-0.3,0.3c-0.1,0.1-0.2,0.2-0.4,0.3
			c-1.1,0.9-2.5,1.9-2.8,3.4c0,0.1,0,0.2,0,0.3c0,0.1,0,0.2,0,0.3c0,1.4,0.7,2.3,0.7,2.3h0v11.8h-0.8v1.6h0.8v7.4v4.5h-0.8v1.6h0.8
			v12.4h-0.8v1.6h0.8v10.9h-0.8v3.1h0.8h2.8h0.3h0.4h2.2h0.8v-3.1H277v-3.7L277,283.6L277,283.6z"/>
		<g>
			<path class="st10" d="M481.4,187.8L481.4,187.8L481.4,187.8l0.1-14.2c0,0,0,0,0,0s-0.3,0.2-0.7,0.5c-0.2,0.2-0.5,0.4-0.8,0.6
				c-2.3,1.8-5.1,3.9-5.7,6.9c0,0.2,0,0.4-0.1,0.7c0,0.2,0,0.4,0,0.6c0,2.9,1.4,4.8,1.4,4.8h0h5L481.4,187.8L481.4,187.8z"/>
			<path class="st11" d="M482.2,187.8h5.1c0,0,0.7-1,1.1-2.6c0.1-0.3,0.2-0.7,0.2-1c1.2-4.7-3.2-7.6-6.4-10
				c-0.3-0.2-0.6-0.4-0.7-0.5v14.2L482.2,187.8L482.2,187.8z"/>
			<rect x="481.5" y="215.5" class="st11" width="5.8" height="24.5"/>
			<polygon class="st11" points="481.5,187.8 481.5,212.2 487.3,212.2 487.3,187.8 487.3,187.8 482.2,187.8 			"/>
			<polygon class="st11" points="482.8,243.3 481.5,243.3 481.5,268.8 487.3,268.8 487.3,257 487.3,243.3 			"/>
			<polygon class="st10" points="481.5,187.8 481.5,187.8 481.4,187.8 480.7,187.8 475.7,187.8 475.7,212.2 481.5,212.2 			"/>
			<polygon class="st10" points="475.7,215.5 475.7,230.7 475.7,240 481.3,240 481.5,240 481.5,215.5 			"/>
			<rect x="475.7" y="272" class="st10" width="5.8" height="29"/>
			<rect x="475.7" y="243.3" class="st10" width="5.8" height="25.5"/>
			<rect x="474" y="240" class="st12" width="14.9" height="3.3"/>
			<rect x="474" y="268.8" class="st12" width="14.9" height="3.3"/>
			<polygon class="st12" points="487.3,212.2 487.2,212.2 481.5,212.2 475.7,212.2 474,212.2 474,215.5 475.7,215.5 481.5,215.5 
				487.2,215.5 487.3,215.5 488.9,215.5 488.9,212.2 			"/>
			<polygon class="st11" points="481.5,272 481.5,301 482.1,301 482.8,301 487.3,301 487.3,287 487.3,281.1 487.3,272 			"/>
		</g>
		<g>
			<path class="st10" d="M259.3,244.7L259.3,244.7L259.3,244.7l0.1-11.9c0,0,0,0,0,0s-0.2,0.2-0.6,0.4c-0.2,0.1-0.4,0.3-0.6,0.5
				c-1.9,1.6-4.3,3.3-4.8,5.9c0,0.2,0,0.4,0,0.6c0,0.2,0,0.4,0,0.5c0,2.4,1.2,4.1,1.2,4.1h0h4.2L259.3,244.7L259.3,244.7z"/>
			<path class="st11" d="M259.9,244.7h4.3c0,0,0.6-0.8,0.9-2.2c0.1-0.3,0.1-0.6,0.2-0.9c1-4-2.7-6.4-5.4-8.4
				c-0.3-0.2-0.5-0.4-0.6-0.4v11.9H259.9z"/>
			<rect x="259.3" y="268" class="st11" width="4.9" height="20.7"/>
			<polygon class="st11" points="259.3,244.7 259.3,265.3 264.3,265.3 264.3,244.7 264.2,244.7 259.9,244.7 			"/>
			<polygon class="st10" points="259.3,244.7 259.3,244.7 259.3,244.7 258.7,244.7 254.4,244.7 254.4,265.3 259.3,265.3 			"/>
			<polygon class="st10" points="254.4,268 254.4,280.8 254.4,288.7 259.2,288.7 259.3,288.7 259.3,268 			"/>
			<rect x="253" y="288.7" class="st12" width="12.6" height="2.7"/>
			<polygon class="st12" points="264.3,265.3 264.2,265.3 259.3,265.3 254.4,265.3 253,265.3 253,268 254.4,268 259.3,268 
				264.2,268 264.3,268 265.6,268 265.6,265.3 			"/>
		</g>
		<g>
			<path class="st10" d="M461.9,221h-6c0,0-1.6-2.3-1.7-5.7c0-0.2,0-0.5,0-0.7c0-0.3,0-0.5,0.1-0.8c0.7-3.6,4-6,6.7-8.2
				c0.3-0.3,0.6-0.5,0.9-0.7c0.4-0.3,0.7-0.5,0.8-0.6V221H461.9z"/>
			<path class="st11" d="M462.8,221L462.8,221L462.8,221l-0.1-16.7c0,0,0,0,0,0c0,0,0.3,0.2,0.8,0.6c3.8,2.9,9,6.3,7.6,11.8
				c-0.1,0.4-0.1,0.8-0.2,1.2c-0.5,1.9-1.3,3.1-1.3,3.1h-6L462.8,221L462.8,221z"/>
			<polygon class="st10" points="462.7,221 462.7,223 461.7,223 461.7,230.3 458.8,230.3 458.8,223 456.7,223 456.7,230.3 
				454.1,230.3 454.1,221 455.9,221 461.9,221 			"/>
			<polygon class="st11" points="462.7,223 462.7,221 462.7,221 462.8,221 463.6,221 469.6,221 471.5,221 471.5,230.3 468.9,230.3 
				468.9,223 466.8,223 466.8,230.3 463.8,230.3 463.8,223 			"/>
			<rect x="466.8" y="223" class="st3" width="2.1" height="7.3"/>
			<rect x="461.7" y="223" class="st3" width="1" height="7.3"/>
			<rect x="462.7" y="223" class="st3" width="1.1" height="7.3"/>
			<rect x="456.7" y="223" class="st3" width="2.1" height="7.3"/>
			<rect x="451.6" y="228.2" class="st10" width="22.5" height="54.7"/>
			<path class="st3" d="M457.5,250.1v-7.8h0c0-0.1,0-0.3,0-0.4c0.4-2.2,2.4-3.6,4.1-4.9c0.2-0.2,0.4-0.3,0.5-0.4
				c0.3-0.2,0.5-0.4,0.5-0.4s0,0,0,0v14L457.5,250.1L457.5,250.1z"/>
			<path class="st3" d="M467.9,242.2L467.9,242.2l0,7.8h-5.2v-14c0.1,0,0.2,0.2,0.5,0.3C465.1,237.9,467.7,239.6,467.9,242.2z"/>
			<polygon class="st12" points="467.9,250.1 462.7,250.1 457.5,250.1 455,250.1 455,255.9 462.7,255.9 470.4,255.9 470.4,250.1 			
				"/>
			<path class="st3" d="M457.5,274.9V267h0c0-0.1,0-0.3,0-0.4c0.4-2.2,2.4-3.6,4.1-4.9c0.2-0.2,0.4-0.3,0.5-0.4
				c0.3-0.2,0.5-0.4,0.5-0.4s0,0,0,0v14L457.5,274.9L457.5,274.9z"/>
			<path class="st3" d="M467.9,267L467.9,267l0,7.8h-5.2v-14c0.1,0,0.2,0.2,0.5,0.3C465.1,262.7,467.7,264.4,467.9,267z"/>
			<rect x="462.7" y="274.9" class="st12" width="5.2" height="5.5"/>
			<polygon class="st12" points="467.9,274.9 467.9,280.3 462.7,280.3 462.7,274.9 457.5,274.9 455,274.9 455,280.7 462.7,280.7 
				470.4,280.7 470.4,274.9 			"/>
		</g>
		<g>
			<path class="st10" d="M293.3,226.8h-6c0,0-1.6-2.3-1.7-5.7c0-0.2,0-0.5,0-0.7c0-0.3,0-0.5,0.1-0.8c0.7-3.6,4-6,6.7-8.2
				c0.3-0.3,0.6-0.5,0.9-0.7c0.4-0.3,0.7-0.5,0.8-0.6v16.7L293.3,226.8L293.3,226.8z"/>
			<path class="st11" d="M294.2,226.8L294.2,226.8L294.2,226.8l-0.1-16.7c0,0,0,0,0,0c0,0,0.3,0.2,0.8,0.6c3.8,2.9,9,6.2,7.6,11.8
				c-0.1,0.4-0.1,0.8-0.2,1.2c-0.5,1.9-1.3,3.1-1.3,3.1h-6L294.2,226.8L294.2,226.8z"/>
			<polygon class="st10" points="294.2,226.8 294.2,228.8 293.2,228.8 293.2,236.1 290.2,236.1 290.2,228.8 288.1,228.8 
				288.1,236.1 285.6,236.1 285.6,226.8 287.3,226.8 293.3,226.8 			"/>
			<polygon class="st11" points="294.2,228.8 294.2,226.8 294.2,226.8 294.2,226.8 295.1,226.8 301.1,226.8 302.9,226.8 
				302.9,236.1 300.3,236.1 300.3,228.8 298.2,228.8 298.2,236.1 295.3,236.1 295.3,228.8 			"/>
			<rect x="298.2" y="228.8" class="st3" width="2.1" height="7.3"/>
			<rect x="293.2" y="228.8" class="st3" width="1" height="7.3"/>
			<rect x="294.2" y="228.8" class="st3" width="1.1" height="7.3"/>
			<rect x="288.1" y="228.8" class="st3" width="2.1" height="7.3"/>
			<rect x="283" y="234" class="st10" width="22.5" height="54.7"/>
			<path class="st3" d="M289,255.9V248h0c0-0.1,0-0.3,0-0.4c0.4-2.2,2.4-3.6,4.1-4.9c0.2-0.2,0.4-0.3,0.5-0.4
				c0.3-0.2,0.5-0.4,0.5-0.4s0,0,0,0v14L289,255.9L289,255.9z"/>
			<path class="st3" d="M299.3,248L299.3,248l0,7.8h-5.2v-14c0.1,0,0.2,0.2,0.5,0.3C296.6,243.7,299.2,245.4,299.3,248z"/>
			<polygon class="st12" points="299.3,255.9 294.2,255.9 289,255.9 286.4,255.9 286.4,261.7 294.2,261.7 301.9,261.7 301.9,255.9 
							"/>
			<path class="st3" d="M289,280.7v-7.8h0c0-0.1,0-0.3,0-0.4c0.4-2.2,2.4-3.6,4.1-4.9c0.2-0.2,0.4-0.3,0.5-0.4
				c0.3-0.2,0.5-0.4,0.5-0.4s0,0,0,0v14L289,280.7L289,280.7z"/>
			<path class="st3" d="M299.3,272.8L299.3,272.8l0,7.8h-5.2v-14c0.1,0,0.2,0.2,0.5,0.3C296.6,268.5,299.2,270.2,299.3,272.8z"/>
			<rect x="294.2" y="280.7" class="st12" width="5.2" height="5.5"/>
			<polygon class="st12" points="299.3,280.7 299.3,286.2 294.2,286.2 294.2,280.7 289,280.7 286.4,280.7 286.4,286.5 294.2,286.5 
				301.9,286.5 301.9,280.7 			"/>
		</g>
		<g>
			<rect x="326" y="259.9" class="st13" width="98.9" height="31.1"/>
			<rect x="335" y="235.2" class="st13" width="89.9" height="55.8"/>
			<g>
				<rect x="358.5" y="224.5" class="st14" width="42.9" height="66.5"/>
				<rect x="361.2" y="228.7" class="st13" width="37.3" height="62.2"/>
				<rect x="365.1" y="235.2" class="st7" width="29.6" height="55.8"/>
				<rect x="371.6" y="262.3" class="st13" width="16.5" height="28.6"/>
				<path class="st3" d="M374.8,272c0-0.1,0-0.2,0-0.3v-0.1h0c0.2-2.7,2.4-4.8,5.1-4.8c2.7,0,4.9,2.1,5.1,4.8h0v0.1
					c0,0.1,0,0.2,0,0.3c0,0.1,0,0.2,0,0.3v14.7h-10.2v-14.7C374.8,272.2,374.8,272.1,374.8,272z"/>
				<g>
					<path class="st13" d="M379.9,216.4H399c-0.1,0.9-0.2,1.8-0.5,2.7c-0.1,1-0.3,1.9-0.5,2.7c-1.1,4.3-2.9,6.9-2.9,6.9h-13.3h-1.8
						v-4.3L379.9,216.4L379.9,216.4z"/>
					<path class="st7" d="M379.9,224.5v4.3h-0.1h-0.1h-1.9h-13.3c0,0-3.5-5-3.7-12.4h19.1V224.5z"/>
					<path class="st13" d="M379.9,212.3v-19.7h0.6V192c0.3,0.2,0.7,0.5,1.1,0.8c7.8,5.9,18.2,12.8,17.4,23.6h-19.1L379.9,212.3
						L379.9,212.3z"/>
					<path class="st7" d="M360.8,214.4c0-0.6,0.1-1.1,0.2-1.7c1.4-8,9-13.4,14.9-18.2c0.8-0.6,1.4-1.1,2-1.6c0.6-0.5,1.1-0.8,1.4-1
						v0.9h0.6v19.7v4.1h-19.1c0-0.1,0-0.2,0-0.3C360.8,215.5,360.8,214.9,360.8,214.4z"/>
					<path class="st13" d="M379.8,191.4c0,0-0.2,0.1-0.5,0.3v-13.2h0.6v13C379.8,191.5,379.8,191.4,379.8,191.4z"/>
					<path class="st7" d="M379.9,178.6h0.6V192c-0.3-0.2-0.5-0.4-0.6-0.4V178.6z"/>
					<path class="st13" d="M379.9,191.5v1.1h-0.6v-0.9c0.3-0.2,0.5-0.3,0.5-0.3C379.8,191.4,379.8,191.5,379.9,191.5z"/>
					<path class="st7" d="M379.9,192.6v-1.1c0.1,0.1,0.3,0.2,0.6,0.4v0.7H379.9z"/>
				</g>
			</g>
			<g>
				<path class="st13" d="M329,199.8L329,199.8L329,199.8l-0.1-11.4c0,0,0,0,0,0s0.2,0.2,0.6,0.4c0.2,0.1,0.4,0.3,0.6,0.5
					c1.8,1.5,4.1,3.1,4.6,5.6c0,0.2,0,0.4,0,0.5c0,0.2,0,0.3,0,0.5c0,2.3-1.1,3.9-1.1,3.9h0h-4.1H329z"/>
				<path class="st7" d="M328.4,199.8h-4.1c0,0-0.6-0.8-0.9-2.1c-0.1-0.3-0.1-0.5-0.2-0.8c-0.9-3.8,2.6-6.1,5.2-8.1
					c0.3-0.2,0.4-0.3,0.5-0.4v11.4L328.4,199.8L328.4,199.8z"/>
				<rect x="324.2" y="222.1" class="st7" width="4.7" height="19.8"/>
				<polygon class="st7" points="328.9,199.8 328.9,219.4 324.2,219.4 324.2,199.8 324.3,199.8 328.4,199.8 				"/>
				<polygon class="st7" points="327.8,244.4 328.9,244.4 328.9,265 324.2,265 324.2,255.5 324.2,244.4 				"/>
				<polygon class="st13" points="328.9,199.8 328.9,199.8 329,199.8 329.6,199.8 333.6,199.8 333.6,219.4 328.9,219.4 				"/>
				<polygon class="st13" points="333.6,222.1 333.6,234.3 333.6,241.8 329.1,241.8 328.9,241.8 328.9,222.1 				"/>
				<rect x="328.9" y="267.6" class="st13" width="4.7" height="23.3"/>
				<rect x="328.9" y="244.4" class="st13" width="4.7" height="20.6"/>
				<rect x="333.6" y="265" class="st14" width="1.3" height="2.6"/>
				<rect x="324.2" y="265" class="st14" width="4.7" height="2.6"/>
				<rect x="328.9" y="265" class="st14" width="4.7" height="2.6"/>
				<rect x="333.6" y="241.8" class="st14" width="1.3" height="2.6"/>
				<path class="st15" d="M328.9,242.1v-0.3h0.1C329,241.9,329,242,328.9,242.1z"/>
				<path class="st14" d="M333.6,241.8v2.6h-4.7v-2.3c0-0.1,0.1-0.2,0.1-0.3H333.6z"/>
				<path class="st14" d="M328.9,242.1c-0.4,0.8-0.7,1.5-1.1,2.3h-3.6v-2.6h4.7L328.9,242.1L328.9,242.1z"/>
				<path class="st14" d="M327.8,244.4c0.3-0.8,0.7-1.6,1.1-2.3v2.3H327.8z"/>
				<rect x="333.6" y="219.4" class="st14" width="1.3" height="2.6"/>
				<rect x="328.9" y="219.4" class="st14" width="4.7" height="2.6"/>
				<rect x="324.2" y="219.4" class="st14" width="4.7" height="2.6"/>
				<g>
					<path class="st13" d="M347.6,225.3h6.3c0,0,1.7-2.4,1.8-6.1c0-0.3,0-0.5,0-0.8c0-0.3,0-0.5-0.1-0.8c-0.7-3.8-4.3-6.4-7.1-8.7
						c-0.4-0.3-0.7-0.5-0.9-0.8c-0.4-0.3-0.7-0.6-0.8-0.6v17.7L347.6,225.3L347.6,225.3z"/>
					<path class="st7" d="M346.7,225.3L346.7,225.3L346.7,225.3l0.1-17.7c0,0,0,0,0,0c0,0-0.3,0.2-0.9,0.7c-4,3.1-9.5,6.6-8.1,12.5
						c0.1,0.5,0.1,0.9,0.3,1.3c0.5,2,1.4,3.3,1.4,3.3h6.3H346.7z"/>
					<polygon class="st13" points="346.7,225.3 346.7,227.5 347.8,227.5 347.8,235.2 350.9,235.2 350.9,227.5 353.1,227.5 
						353.1,235.2 355.8,235.2 355.8,225.3 354,225.3 347.6,225.3 					"/>
					<polygon class="st7" points="346.7,227.5 346.7,225.3 346.7,225.3 346.7,225.3 345.7,225.3 339.4,225.3 337.4,225.3 
						337.4,235.2 340.2,235.2 340.2,227.5 342.4,227.5 342.4,235.2 345.5,235.2 345.5,227.5 					"/>
					<rect x="340.2" y="227.5" class="st3" width="2.2" height="7.7"/>
					<rect x="346.7" y="227.5" class="st3" width="1" height="7.7"/>
					<rect x="345.5" y="227.5" class="st3" width="1.2" height="7.7"/>
					<rect x="350.9" y="227.5" class="st3" width="2.2" height="7.7"/>
					<path class="st3" d="M352.2,256.1v-8.3h0c0-0.2,0-0.3,0-0.5c-0.4-2.3-2.6-3.9-4.3-5.2c-0.2-0.2-0.4-0.3-0.6-0.5
						c-0.3-0.3-0.5-0.4-0.5-0.4s0,0,0,0v14.8H352.2z"/>
					<path class="st3" d="M341.2,247.8L341.2,247.8l0,8.3h5.5v-14.8c-0.1,0.1-0.2,0.2-0.5,0.4C344.1,243.2,341.4,245,341.2,247.8z"
						/>
					<polygon class="st14" points="341.2,261.9 341.2,256.1 338.5,256.1 338.5,262.3 346.7,262.3 346.7,261.9 					"/>
					<polygon class="st14" points="346.7,261.9 346.7,262.3 354.9,262.3 354.9,256.1 352.2,256.1 352.2,261.9 					"/>
					<rect x="346.7" y="256.1" class="st14" width="5.5" height="5.8"/>
					<rect x="341.2" y="256.1" class="st14" width="5.5" height="5.8"/>
					<path class="st3" d="M352.2,282.4v-8.3h0c0-0.2,0-0.3,0-0.5c-0.4-2.3-2.6-3.9-4.3-5.2c-0.2-0.2-0.4-0.3-0.6-0.5
						c-0.3-0.3-0.5-0.4-0.5-0.4s0,0,0,0v14.8H352.2z"/>
					<path class="st3" d="M341.2,274.1L341.2,274.1l0,8.3h5.5v-14.8c-0.1,0-0.2,0.2-0.5,0.4C344.1,269.5,341.4,271.3,341.2,274.1z"
						/>
					<polygon class="st14" points="346.7,288.2 346.7,288.6 354.9,288.6 354.9,282.4 352.2,282.4 352.2,288.2 					"/>
					<polygon class="st14" points="341.2,288.2 341.2,282.4 338.5,282.4 338.5,288.6 346.7,288.6 346.7,288.2 					"/>
					<rect x="341.2" y="282.4" class="st14" width="5.5" height="5.8"/>
					<rect x="346.7" y="282.4" class="st14" width="5.5" height="5.8"/>
				</g>
				<polygon class="st7" points="328.9,267.6 328.9,291 328.4,291 327.8,291 324.2,291 324.2,279.7 324.2,275 324.2,267.6 				"/>
			</g>
			<g>
				<path class="st13" d="M412.4,225.3h-6.3c0,0-1.7-2.4-1.8-6.1c0-0.3,0-0.5,0-0.8c0-0.3,0-0.5,0.1-0.8c0.7-3.8,4.3-6.4,7.1-8.7
					c0.4-0.3,0.7-0.5,0.9-0.8c0.4-0.3,0.7-0.6,0.8-0.6v17.7L412.4,225.3L412.4,225.3z"/>
				<path class="st7" d="M413.4,225.3L413.4,225.3L413.4,225.3l-0.1-17.7c0,0,0,0,0,0s0.3,0.2,0.9,0.7c4,3.1,9.5,6.6,8.1,12.5
					c-0.1,0.5-0.2,0.9-0.3,1.3c-0.5,2-1.4,3.3-1.4,3.3h-6.3H413.4z"/>
				<polygon class="st13" points="413.3,225.3 413.3,227.5 412.3,227.5 412.3,235.2 409.2,235.2 409.2,227.5 406.9,227.5 
					406.9,235.2 404.2,235.2 404.2,225.3 406.1,225.3 412.4,225.3 				"/>
				<polygon class="st7" points="413.3,227.5 413.3,225.3 413.4,225.3 413.4,225.3 414.3,225.3 420.7,225.3 422.7,225.3 
					422.7,235.2 419.9,235.2 419.9,227.5 417.7,227.5 417.7,235.2 414.5,235.2 414.5,227.5 				"/>
				<rect x="417.7" y="227.5" class="st3" width="2.2" height="7.7"/>
				<rect x="412.3" y="227.5" class="st3" width="1" height="7.7"/>
				<rect x="413.3" y="227.5" class="st3" width="1.2" height="7.7"/>
				<rect x="406.9" y="227.5" class="st3" width="2.2" height="7.7"/>
				<path class="st3" d="M407.8,256.1v-8.3h0c0-0.2,0-0.3,0-0.5c0.4-2.3,2.6-3.9,4.3-5.2c0.2-0.2,0.4-0.3,0.6-0.5
					c0.3-0.3,0.5-0.4,0.5-0.4s0,0,0,0v14.8H407.8z"/>
				<path class="st3" d="M418.8,247.8L418.8,247.8l0,8.3h-5.5v-14.8c0.1,0.1,0.2,0.2,0.5,0.4C415.9,243.2,418.7,245,418.8,247.8z"/>
				<polygon class="st14" points="418.8,261.9 418.8,256.1 421.5,256.1 421.5,262.3 413.3,262.3 413.3,261.9 				"/>
				<polygon class="st14" points="413.3,261.9 413.3,262.3 405.2,262.3 405.2,256.1 407.8,256.1 407.8,261.9 				"/>
				<rect x="407.8" y="256.1" class="st14" width="5.5" height="5.8"/>
				<rect x="413.3" y="256.1" class="st14" width="5.5" height="5.8"/>
				<path class="st3" d="M407.8,282.4v-8.3h0c0-0.2,0-0.3,0-0.5c0.4-2.3,2.6-3.9,4.3-5.2c0.2-0.2,0.4-0.3,0.6-0.5
					c0.3-0.3,0.5-0.4,0.5-0.4s0,0,0,0v14.8H407.8z"/>
				<path class="st3" d="M418.8,274.1L418.8,274.1l0,8.3h-5.5v-14.8c0.1,0,0.2,0.2,0.5,0.4C415.9,269.5,418.7,271.3,418.8,274.1z"/>
				<polygon class="st14" points="413.3,288.2 413.3,288.6 405.2,288.6 405.2,282.4 407.8,282.4 407.8,288.2 				"/>
				<polygon class="st14" points="418.8,288.2 418.8,282.4 421.5,282.4 421.5,288.6 413.3,288.6 413.3,288.2 				"/>
				<rect x="413.3" y="282.4" class="st14" width="5.5" height="5.8"/>
				<rect x="407.8" y="282.4" class="st14" width="5.5" height="5.8"/>
			</g>
		</g>
		<path class="st7" d="M310.9,268.1v-6.1h-2.4c0.2-0.4,0.3-0.9,0.5-1.5c0.1-0.5,0.2-1,0.3-1.6c0.1-0.5,0.2-1,0.3-1.6
			c0.5-6.1-5.4-10-9.8-13.3c-0.3-0.2-0.5-0.4-0.6-0.5v-7.6h-0.3h-0.3v7.5c-0.2,0.1-0.5,0.3-0.8,0.6c-0.3,0.2-0.7,0.6-1.1,0.9
			c-3.4,2.7-7.6,5.8-8.5,10.3c0,0.3-0.1,0.7-0.1,1c0,0.3,0,0.6,0,0.9c0,0.1,0,0.1,0,0.2c0,1.8,0.4,3.4,0.9,4.6h-2.2v6.1h-13.3v31.6
			h13.3h1.6h2.2h3.7h9.4h3.7h2.2h1.6h13.3v-31.6L310.9,268.1L310.9,268.1z"/>
		<path class="st10" d="M502.2,219.2c-1.4-1.2-2.9-2.3-4.3-3.3c-0.2-0.2-0.4-0.3-0.6-0.4v-6.9H497h-0.3v6.8
			c-0.2,0.1-0.4,0.3-0.7,0.5c-0.3,0.2-0.6,0.5-1,0.8c-3.1,2.5-6.9,5.2-7.7,9.3c0,0.3-0.1,0.6-0.1,0.9c0,0.3,0,0.6,0,0.8
			c0,0.1,0,0.1,0,0.2c0,1.6,0.4,3.1,0.8,4.1h-2v5.5h-12v28.6h12h1.4h2h3.4h8.5h0.9V219.2z"/>
	</g>
	<g>
		<path class="st2" d="M4.2,138.2c0.7,2.5,1.4,5,2.1,7.4C34.5,205.2,85.8,280.5,174,316h326v-81.6c-56.9,35.7-124.2,56.4-196.4,56.4
			C180.5,290.8,71.5,230.7,4.2,138.2z"/>
		<path class="st3" d="M6.3,145.6C33.4,238.7,66.7,291.5,85.6,316H174C85.8,280.5,34.5,205.2,6.3,145.6z"/>
		<path class="st4" d="M6.3,145.6c-0.7-2.5-1.4-4.9-2.1-7.4c-1.2-1.6-2.3-3.2-3.5-4.8C2.5,137.4,4.4,141.5,6.3,145.6z"/>
		<path class="st4" d="M0,132.3V316h85.6c-18.9-24.5-52.2-77.3-79.3-170.4c-2-4.2-3.8-8.3-5.6-12.3C0.5,133,0.3,132.7,0,132.3z"/>
		<path class="st4" d="M0.8,133.4c1.1,1.6,2.3,3.2,3.5,4.8C2.8,133.2,1.4,128,0,122.7v9C0.3,132.2,0.5,132.8,0.8,133.4z"/>
		<path class="st4" d="M0,131.6v0.7c0.3,0.4,0.5,0.7,0.8,1.1C0.5,132.8,0.3,132.2,0,131.6z"/>
	</g>
</g>
</svg>
