<?xml version="1.0" encoding="utf-8"?>
<!-- Generator: Adobe Illustrator 24.0.2, SVG Export Plug-In . SVG Version: 6.00 Build 0)  -->
<svg version="1.1" id="OBJECTS" xmlns="http://www.w3.org/2000/svg" xmlns:xlink="http://www.w3.org/1999/xlink" x="0px" y="0px"
	 viewBox="0 0 561.7 374.5" style="enable-background:new 0 0 561.7 374.5;" xml:space="preserve">
<style type="text/css">
	.st0{clip-path:url(#SVGID_4_);fill:url(#SVGID_5_);}
	.st1{opacity:0.4;clip-path:url(#SVGID_4_);fill:none;stroke:#F4F4F4;stroke-width:2;stroke-miterlimit:10;}
	.st2{clip-path:url(#SVGID_4_);}
	.st3{fill:url(#SVGID_6_);}
	.st4{fill:url(#SVGID_7_);}
	.st5{display:none;clip-path:url(#SVGID_4_);}
	.st6{display:inline;fill:#8250EF;}
	.st7{fill:url(#SVGID_8_);}
	.st8{fill:url(#SVGID_9_);}
	.st9{fill:url(#SVGID_10_);}
	.st10{fill:url(#SVGID_11_);}
</style>
<g>
	
		<image style="overflow:visible;opacity:0.35;" width="3339" height="3592" xlink:href="967425AE.png"  transform="matrix(0.24 0 0 0.24 -8.04 -224.44)">
	</image>
	<g>
		<g>
			<defs>
				<rect id="SVGID_1_" width="561.7" height="374.5"/>
			</defs>
			<clipPath id="SVGID_2_">
				<use xlink:href="#SVGID_1_"  style="overflow:visible;"/>
			</clipPath>
		</g>
		<g>
			<defs>
				<rect id="SVGID_3_" width="561.7" height="374.5"/>
			</defs>
			<clipPath id="SVGID_4_">
				<use xlink:href="#SVGID_3_"  style="overflow:visible;"/>
			</clipPath>
			<linearGradient id="SVGID_5_" gradientUnits="userSpaceOnUse" x1="-51.9509" y1="16.8415" x2="416.8148" y2="256.8419">
				<stop  offset="1.400000e-07" style="stop-color:#E06E45"/>
				<stop  offset="0.9955" style="stop-color:#ECB52A"/>
			</linearGradient>
			<rect class="st0" width="561.7" height="374.5"/>
			<path class="st1" d="M218.4,239.6L218.4,239.6c6.1,4.4,7.4,12.9,3,19L52.8,491.2c-4.4,6.1-12.9,7.4-19,3l0,0
				c-6.1-4.4-7.4-12.9-3-19l168.6-232.6C203.8,236.5,212.3,235.2,218.4,239.6z"/>
			<g class="st2">
				
					<image style="overflow:visible;opacity:0.6;" width="1067" height="1280" xlink:href="967425B2.png"  transform="matrix(0.24 0 0 0.24 6.72 286.88)">
				</image>
				<g>
					<linearGradient id="SVGID_6_" gradientUnits="userSpaceOnUse" x1="216.8129" y1="318.6863" x2="55.451" y2="529.0692">
						<stop  offset="1.400000e-07" style="stop-color:#E06E45"/>
						<stop  offset="0.9955" style="stop-color:#ECB52A"/>
					</linearGradient>
					<path class="st3" d="M221.1,306.1L221.1,306.1c19.1,13.8,23.3,40.5,9.5,59.6L96.1,551.2c-13.8,19.1-40.5,23.3-59.6,9.5l0,0
						c-19.1-13.8-23.3-40.5-9.5-59.6l134.5-185.5C175.3,296.5,202,292.3,221.1,306.1z"/>
				</g>
			</g>
			<g class="st2">
				
					<image style="overflow:visible;opacity:0.6;" width="2117" height="2540" xlink:href="967425B5.png"  transform="matrix(0.24 0 0 0.24 267.6282 10.4282)">
				</image>
				<g>
					<linearGradient id="SVGID_7_" gradientUnits="userSpaceOnUse" x1="476.2589" y1="357.6784" x2="665.1951" y2="39.0404">
						<stop  offset="1.400000e-07" style="stop-color:#E06E45"/>
						<stop  offset="0.9955" style="stop-color:#ECB52A"/>
					</linearGradient>
					<path class="st4" d="M692.9,48.5L692.9,48.5c37.9,27.5,46.3,80.4,18.9,118.3l-267,368.3c-27.5,37.9-80.4,46.3-118.3,18.9l0,0
						c-37.9-27.5-46.3-80.4-18.9-118.3l267-368.3C602.1,29.5,655,21.1,692.9,48.5z"/>
				</g>
			</g>
			<g class="st5">
				<path class="st6" d="M276.9,343.3L276.9,343.3c1.3,1,1.6,2.8,0.7,4.2l-30.8,42.4c-1,1.3-2.8,1.6-4.2,0.7v0
					c-1.3-1-1.6-2.8-0.7-4.2l30.8-42.4C273.7,342.6,275.6,342.3,276.9,343.3z"/>
			</g>
			<path class="st1" d="M670.3-123.4L670.3-123.4c4.4,3.2,5.3,9.2,2.2,13.6L499.3,129.1c-3.2,4.4-9.2,5.3-13.6,2.2l0,0
				c-4.4-3.2-5.3-9.2-2.2-13.6l173.2-238.9C659.8-125.5,665.9-126.5,670.3-123.4z"/>
			<g class="st2">
				
					<image style="overflow:visible;opacity:0.6;" width="998" height="1248" xlink:href="967425B6.png"  transform="matrix(0.24 0 0 0.24 393.84 62.24)">
				</image>
				<g>
					<linearGradient id="SVGID_8_" gradientUnits="userSpaceOnUse" x1="405.9509" y1="205.0933" x2="609.3378" y2="205.0933">
						<stop  offset="1.400000e-07" style="stop-color:#E06E45"/>
						<stop  offset="0.9955" style="stop-color:#ECB52A"/>
					</linearGradient>
					<path class="st7" d="M599.9,77.8L599.9,77.8c10.2,7.4,12.4,21.6,5.1,31.8L447.1,327.3c-7.4,10.2-21.6,12.4-31.8,5.1v0
						c-10.2-7.4-12.4-21.6-5.1-31.8L568.2,82.8C575.5,72.7,589.8,70.4,599.9,77.8z"/>
				</g>
			</g>
			<path class="st1" d="M469.8,239.6L469.8,239.6c7.4,5.4,9,15.7,3.7,23.1L308.3,490.5c-5.4,7.4-15.7,9-23.1,3.7h0
				c-7.4-5.4-9-15.7-3.7-23.1l165.2-227.9C452.1,235.9,462.4,234.2,469.8,239.6z"/>
			<g class="st2">
				
					<image style="overflow:visible;opacity:0.6;" width="1022" height="1259" xlink:href="967425B4.png"  transform="matrix(0.24 0 0 0.24 276 143.36)">
				</image>
				<g>
					
						<linearGradient id="SVGID_9_" gradientUnits="userSpaceOnUse" x1="299.0703" y1="292.1319" x2="499.5704" y2="292.1319" gradientTransform="matrix(1.1961 0.1421 0.1421 1.103 -126.441 -91.6408)">
						<stop  offset="1.400000e-07" style="stop-color:#E06E45"/>
						<stop  offset="0.9955" style="stop-color:#ECB52A"/>
					</linearGradient>
					<path class="st8" d="M485,160L485,160c13.2,9.6,16.2,28.1,6.6,41.3L341.7,408.1c-9.6,13.2-28.1,16.2-41.3,6.6l0,0
						c-13.2-9.6-16.2-28.1-6.6-41.3l149.9-206.8C453.3,153.4,471.8,150.4,485,160z"/>
				</g>
			</g>
			<path class="st1" d="M415.9,115.5L415.9,115.5c10.2,7.4,12.4,21.6,5.1,31.8L311.5,298.4c-7.4,10.2-21.6,12.4-31.8,5.1v0
				c-10.2-7.4-12.4-21.6-5.1-31.8l109.5-151.1C391.5,110.4,405.7,108.2,415.9,115.5z"/>
			<path class="st1" d="M588.9-212.8L588.9-212.8c6.1,4.4,7.4,12.9,3,19L423.4,38.8c-4.4,6.1-12.9,7.4-19,3l0,0
				c-6.1-4.4-7.4-12.9-3-19l168.6-232.6C574.3-215.8,582.9-217.2,588.9-212.8z"/>
			<path class="st1" d="M630.6,173.5L630.6,173.5c6.1,4.4,7.4,12.9,3,19L465,425.1c-4.4,6.1-12.9,7.4-19,3l0,0
				c-6.1-4.4-7.4-12.9-3-19l168.6-232.6C616,170.4,624.5,169.1,630.6,173.5z"/>
			<g class="st2">
				
					<image style="overflow:visible;opacity:0.6;" width="967" height="1234" xlink:href="967425B3.png"  transform="matrix(0.24 0 0 0.24 349.92 -49.36)">
				</image>
				<g>
					
						<linearGradient id="SVGID_10_" gradientUnits="userSpaceOnUse" x1="376.0692" y1="106.6246" x2="584.8455" y2="106.6246" gradientTransform="matrix(0.7366 -0.1909 -0.1909 0.8616 126.3593 91.5923)">
						<stop  offset="1.400000e-07" style="stop-color:#E06E45"/>
						<stop  offset="0.9955" style="stop-color:#ECB52A"/>
					</linearGradient>
					<path class="st9" d="M552.2-35.6L552.2-35.6c6.1,4.4,7.4,12.9,3,19L386.6,216c-4.4,6.1-12.9,7.4-19,3l0,0
						c-6.1-4.4-7.4-12.9-3-19L533.2-32.5C537.6-38.6,546.1-40,552.2-35.6z"/>
				</g>
			</g>
			<g class="st2">
				
					<image style="overflow:visible;opacity:0.6;" width="418" height="487" xlink:href="967425BD.png"  transform="matrix(0.24 0 0 0.24 263.1484 234.4284)">
				</image>
				<g>
					
						<linearGradient id="SVGID_11_" gradientUnits="userSpaceOnUse" x1="307.158" y1="289.0875" x2="425.8354" y2="289.0875" gradientTransform="matrix(1.0006 0.3112 0.3112 0.7969 -146.9751 -55.7673)">
						<stop  offset="1.400000e-07" style="stop-color:#E06E45"/>
						<stop  offset="0.9955" style="stop-color:#ECB52A"/>
					</linearGradient>
					<path class="st10" d="M341.7,244.5L341.7,244.5c7.6,5.5,9.3,16.1,3.8,23.7L301.3,329c-5.5,7.6-16.1,9.3-23.7,3.8l0,0
						c-7.6-5.5-9.3-16.1-3.8-23.7l44.2-60.9C323.5,240.7,334.1,239,341.7,244.5z"/>
				</g>
			</g>
		</g>
		<g>
			<defs>
				<rect id="SVGID_12_" width="561.7" height="374.5"/>
			</defs>
			<clipPath id="SVGID_13_">
				<use xlink:href="#SVGID_12_"  style="overflow:visible;"/>
			</clipPath>
		</g>
	</g>
</g>
</svg>
