<?xml version="1.0" encoding="utf-8"?>
<!-- Generator: Adobe Illustrator 24.0.2, SVG Export Plug-In . SVG Version: 6.00 Build 0)  -->
<svg version="1.1" id="OBJECTS" xmlns="http://www.w3.org/2000/svg" xmlns:xlink="http://www.w3.org/1999/xlink" x="0px" y="0px"
	 viewBox="0 0 561.7 374.5" style="enable-background:new 0 0 561.7 374.5;" xml:space="preserve">
<style type="text/css">
	.st0{clip-path:url(#SVGID_5_);fill:url(#SVGID_6_);}
	.st1{opacity:0.4;clip-path:url(#SVGID_5_);fill:url(#SVGID_7_);stroke:#F4F4F4;stroke-width:2;stroke-miterlimit:10;}
	.st2{clip-path:url(#SVGID_5_);}
	.st3{fill:url(#SVGID_8_);}
	.st4{fill:url(#SVGID_9_);}
	.st5{display:none;clip-path:url(#SVGID_5_);}
	.st6{display:inline;fill:url(#SVGID_10_);}
	.st7{opacity:0.4;clip-path:url(#SVGID_5_);fill:url(#SVGID_11_);stroke:#F4F4F4;stroke-width:2;stroke-miterlimit:10;}
	.st8{clip-path:url(#SVGID_5_);fill:url(#SVGID_12_);}
	.st9{fill:url(#SVGID_13_);}
	.st10{opacity:0.4;clip-path:url(#SVGID_5_);fill:url(#SVGID_14_);stroke:#F4F4F4;stroke-width:2;stroke-miterlimit:10;}
	.st11{fill:url(#SVGID_15_);}
	.st12{opacity:0.4;clip-path:url(#SVGID_5_);fill:url(#SVGID_16_);stroke:#F4F4F4;stroke-width:2;stroke-miterlimit:10;}
	.st13{opacity:0.4;clip-path:url(#SVGID_5_);fill:url(#SVGID_17_);stroke:#F4F4F4;stroke-width:2;stroke-miterlimit:10;}
	.st14{opacity:0.4;clip-path:url(#SVGID_5_);fill:url(#SVGID_18_);stroke:#F4F4F4;stroke-width:2;stroke-miterlimit:10;}
	.st15{fill:url(#SVGID_19_);}
	.st16{fill:url(#SVGID_20_);}
</style>
<g>
	
		<image style="overflow:visible;opacity:0.35;" width="3339" height="3592" xlink:href="1FF680C7.png"  transform="matrix(0.24 0 0 0.24 -8.04 -224.44)">
	</image>
	<g>
		<g>
			<defs>
				<rect id="SVGID_1_" width="561.7" height="374.5"/>
			</defs>
			<clipPath id="SVGID_2_">
				<use xlink:href="#SVGID_1_"  style="overflow:visible;"/>
			</clipPath>
		</g>
		<g>
			<defs>
				<rect id="SVGID_3_" width="561.7" height="374.5"/>
			</defs>
			<linearGradient id="SVGID_4_" gradientUnits="userSpaceOnUse" x1="0" y1="187.225" x2="561.68" y2="187.225">
				<stop  offset="1.118836e-07" style="stop-color:#FBB040"/>
				<stop  offset="0.4647" style="stop-color:#FBAE40"/>
				<stop  offset="0.632" style="stop-color:#FBA741"/>
				<stop  offset="0.7513" style="stop-color:#FC9C42"/>
				<stop  offset="0.8478" style="stop-color:#FD8B44"/>
				<stop  offset="0.9295" style="stop-color:#FE7547"/>
				<stop  offset="1" style="stop-color:#FF5B4A"/>
			</linearGradient>
			<use xlink:href="#SVGID_3_"  style="overflow:visible;fill:url(#SVGID_4_);"/>
			<clipPath id="SVGID_5_">
				<use xlink:href="#SVGID_3_"  style="overflow:visible;"/>
			</clipPath>
			<linearGradient id="SVGID_6_" gradientUnits="userSpaceOnUse" x1="0" y1="187.225" x2="561.68" y2="187.225">
				<stop  offset="1.118836e-07" style="stop-color:#FBB040"/>
				<stop  offset="0.4647" style="stop-color:#FBAE40"/>
				<stop  offset="0.632" style="stop-color:#FBA741"/>
				<stop  offset="0.7513" style="stop-color:#FC9C42"/>
				<stop  offset="0.8478" style="stop-color:#FD8B44"/>
				<stop  offset="0.9295" style="stop-color:#FE7547"/>
				<stop  offset="1" style="stop-color:#FF5B4A"/>
			</linearGradient>
			<rect class="st0" width="561.7" height="374.5"/>
			<linearGradient id="SVGID_7_" gradientUnits="userSpaceOnUse" x1="28.216" y1="366.9046" x2="224.0506" y2="366.9046">
				<stop  offset="1.118836e-07" style="stop-color:#FBB040"/>
				<stop  offset="0.4647" style="stop-color:#FBAE40"/>
				<stop  offset="0.632" style="stop-color:#FBA741"/>
				<stop  offset="0.7513" style="stop-color:#FC9C42"/>
				<stop  offset="0.8478" style="stop-color:#FD8B44"/>
				<stop  offset="0.9295" style="stop-color:#FE7547"/>
				<stop  offset="1" style="stop-color:#FF5B4A"/>
			</linearGradient>
			<path class="st1" d="M218.4,239.6L218.4,239.6c6.1,4.4,7.4,12.9,3,19L52.8,491.2c-4.4,6.1-12.9,7.4-19,3l0,0
				c-6.1-4.4-7.4-12.9-3-19l168.6-232.6C203.8,236.5,212.3,235.2,218.4,239.6z"/>
			<g class="st2">
				
					<image style="overflow:visible;opacity:0.6;" width="1067" height="1280" xlink:href="1FF680C5.png"  transform="matrix(0.24 0 0 0.24 6.72 286.88)">
				</image>
				<g>
					<linearGradient id="SVGID_8_" gradientUnits="userSpaceOnUse" x1="18.8814" y1="433.4287" x2="238.7315" y2="433.4287">
						<stop  offset="1.118836e-07" style="stop-color:#FBB040"/>
						<stop  offset="0.4647" style="stop-color:#FBAE40"/>
						<stop  offset="0.632" style="stop-color:#FBA741"/>
						<stop  offset="0.7513" style="stop-color:#FC9C42"/>
						<stop  offset="0.8478" style="stop-color:#FD8B44"/>
						<stop  offset="0.9295" style="stop-color:#FE7547"/>
						<stop  offset="1" style="stop-color:#FF5B4A"/>
					</linearGradient>
					<path class="st3" d="M221.1,306.1L221.1,306.1c19.1,13.8,23.3,40.5,9.5,59.6L96.1,551.2c-13.8,19.1-40.5,23.3-59.6,9.5l0,0
						c-19.1-13.8-23.3-40.5-9.5-59.6l134.5-185.5C175.3,296.5,202,292.3,221.1,306.1z"/>
				</g>
			</g>
			<g class="st2">
				
					<image style="overflow:visible;opacity:0.6;" width="2117" height="2540" xlink:href="1FF680CB.png"  transform="matrix(0.24 0 0 0.24 267.6282 10.4282)">
				</image>
				<g>
					<linearGradient id="SVGID_9_" gradientUnits="userSpaceOnUse" x1="291.4866" y1="301.2821" x2="727.9114" y2="301.2821">
						<stop  offset="1.118836e-07" style="stop-color:#FBB040"/>
						<stop  offset="0.4647" style="stop-color:#FBAE40"/>
						<stop  offset="0.632" style="stop-color:#FBA741"/>
						<stop  offset="0.7513" style="stop-color:#FC9C42"/>
						<stop  offset="0.8478" style="stop-color:#FD8B44"/>
						<stop  offset="0.9295" style="stop-color:#FE7547"/>
						<stop  offset="1" style="stop-color:#FF5B4A"/>
					</linearGradient>
					<path class="st4" d="M692.9,48.5L692.9,48.5c37.9,27.5,46.3,80.4,18.9,118.3l-267,368.3c-27.5,37.9-80.4,46.3-118.3,18.9l0,0
						c-37.9-27.5-46.3-80.4-18.9-118.3l267-368.3C602.1,29.5,655,21.1,692.9,48.5z"/>
				</g>
			</g>
			<g class="st5">
				<linearGradient id="SVGID_10_" gradientUnits="userSpaceOnUse" x1="241.4294" y1="366.9046" x2="278.1619" y2="366.9046">
					<stop  offset="1.118836e-07" style="stop-color:#FBB040"/>
					<stop  offset="0.4647" style="stop-color:#FBAE40"/>
					<stop  offset="0.632" style="stop-color:#FBA741"/>
					<stop  offset="0.7513" style="stop-color:#FC9C42"/>
					<stop  offset="0.8478" style="stop-color:#FD8B44"/>
					<stop  offset="0.9295" style="stop-color:#FE7547"/>
					<stop  offset="1" style="stop-color:#FF5B4A"/>
				</linearGradient>
				<path class="st6" d="M276.9,343.3L276.9,343.3c1.3,1,1.6,2.8,0.7,4.2l-30.8,42.4c-1,1.3-2.8,1.6-4.2,0.7v0
					c-1.3-1-1.6-2.8-0.7-4.2l30.8-42.4C273.7,342.6,275.6,342.3,276.9,343.3z"/>
			</g>
			<linearGradient id="SVGID_11_" gradientUnits="userSpaceOnUse" x1="481.6663" y1="3.957" x2="674.2939" y2="3.957">
				<stop  offset="1.118836e-07" style="stop-color:#FBB040"/>
				<stop  offset="0.4647" style="stop-color:#FBAE40"/>
				<stop  offset="0.632" style="stop-color:#FBA741"/>
				<stop  offset="0.7513" style="stop-color:#FC9C42"/>
				<stop  offset="0.8478" style="stop-color:#FD8B44"/>
				<stop  offset="0.9295" style="stop-color:#FE7547"/>
				<stop  offset="1" style="stop-color:#FF5B4A"/>
			</linearGradient>
			<path class="st7" d="M670.3-123.4L670.3-123.4c4.4,3.2,5.3,9.2,2.2,13.6L499.3,129.1c-3.2,4.4-9.2,5.3-13.6,2.2l0,0
				c-4.4-3.2-5.3-9.2-2.2-13.6l173.2-238.9C659.8-125.5,665.9-126.5,670.3-123.4z"/>
			<linearGradient id="SVGID_12_" gradientUnits="userSpaceOnUse" x1="0" y1="187.225" x2="561.68" y2="187.225">
				<stop  offset="1.118836e-07" style="stop-color:#FBB040"/>
				<stop  offset="0.4647" style="stop-color:#FBAE40"/>
				<stop  offset="0.632" style="stop-color:#FBA741"/>
				<stop  offset="0.7513" style="stop-color:#FC9C42"/>
				<stop  offset="0.8478" style="stop-color:#FD8B44"/>
				<stop  offset="0.9295" style="stop-color:#FE7547"/>
				<stop  offset="1" style="stop-color:#FF5B4A"/>
			</linearGradient>
			<rect class="st8" width="561.7" height="374.5"/>
			<g class="st2">
				
					<image style="overflow:visible;opacity:0.6;" width="998" height="1248" xlink:href="1FF680CD.png"  transform="matrix(0.24 0 0 0.24 393.84 62.24)">
				</image>
				<g>
					<linearGradient id="SVGID_13_" gradientUnits="userSpaceOnUse" x1="405.9509" y1="205.0933" x2="609.3378" y2="205.0933">
						<stop  offset="1.118836e-07" style="stop-color:#FBB040"/>
						<stop  offset="0.4647" style="stop-color:#FBAE40"/>
						<stop  offset="0.632" style="stop-color:#FBA741"/>
						<stop  offset="0.7513" style="stop-color:#FC9C42"/>
						<stop  offset="0.8478" style="stop-color:#FD8B44"/>
						<stop  offset="0.9295" style="stop-color:#FE7547"/>
						<stop  offset="1" style="stop-color:#FF5B4A"/>
					</linearGradient>
					<path class="st9" d="M599.9,77.8L599.9,77.8c10.2,7.4,12.4,21.6,5.1,31.8L447.1,327.3c-7.4,10.2-21.6,12.4-31.8,5.1v0
						c-10.2-7.4-12.4-21.6-5.1-31.8L568.2,82.8C575.5,72.7,589.8,70.4,599.9,77.8z"/>
				</g>
			</g>
			<linearGradient id="SVGID_14_" gradientUnits="userSpaceOnUse" x1="278.3676" y1="366.9046" x2="476.6018" y2="366.9046">
				<stop  offset="1.118836e-07" style="stop-color:#FBB040"/>
				<stop  offset="0.4647" style="stop-color:#FBAE40"/>
				<stop  offset="0.632" style="stop-color:#FBA741"/>
				<stop  offset="0.7513" style="stop-color:#FC9C42"/>
				<stop  offset="0.8478" style="stop-color:#FD8B44"/>
				<stop  offset="0.9295" style="stop-color:#FE7547"/>
				<stop  offset="1" style="stop-color:#FF5B4A"/>
			</linearGradient>
			<path class="st10" d="M469.8,239.6L469.8,239.6c7.4,5.4,9,15.7,3.7,23.1L308.3,490.5c-5.4,7.4-15.7,9-23.1,3.7h0
				c-7.4-5.4-9-15.7-3.7-23.1l165.2-227.9C452.1,235.9,462.4,234.2,469.8,239.6z"/>
			<g class="st2">
				
					<image style="overflow:visible;opacity:0.6;" width="1022" height="1259" xlink:href="1FF680CF.png"  transform="matrix(0.24 0 0 0.24 276 143.36)">
				</image>
				<g>
					<linearGradient id="SVGID_15_" gradientUnits="userSpaceOnUse" x1="288.1786" y1="287.3371" x2="497.1881" y2="287.3371">
						<stop  offset="1.118836e-07" style="stop-color:#FBB040"/>
						<stop  offset="0.4647" style="stop-color:#FBAE40"/>
						<stop  offset="0.632" style="stop-color:#FBA741"/>
						<stop  offset="0.7513" style="stop-color:#FC9C42"/>
						<stop  offset="0.8478" style="stop-color:#FD8B44"/>
						<stop  offset="0.9295" style="stop-color:#FE7547"/>
						<stop  offset="1" style="stop-color:#FF5B4A"/>
					</linearGradient>
					<path class="st11" d="M485,160L485,160c13.2,9.6,16.2,28.1,6.6,41.3L341.7,408.1c-9.6,13.2-28.1,16.2-41.3,6.6l0,0
						c-13.2-9.6-16.2-28.1-6.6-41.3l149.9-206.8C453.3,153.4,471.8,150.4,485,160z"/>
				</g>
			</g>
			<linearGradient id="SVGID_16_" gradientUnits="userSpaceOnUse" x1="270.315" y1="209.489" x2="425.3183" y2="209.489">
				<stop  offset="1.118836e-07" style="stop-color:#FBB040"/>
				<stop  offset="0.4647" style="stop-color:#FBAE40"/>
				<stop  offset="0.632" style="stop-color:#FBA741"/>
				<stop  offset="0.7513" style="stop-color:#FC9C42"/>
				<stop  offset="0.8478" style="stop-color:#FD8B44"/>
				<stop  offset="0.9295" style="stop-color:#FE7547"/>
				<stop  offset="1" style="stop-color:#FF5B4A"/>
			</linearGradient>
			<path class="st12" d="M415.9,115.5L415.9,115.5c10.2,7.4,12.4,21.6,5.1,31.8L311.5,298.4c-7.4,10.2-21.6,12.4-31.8,5.1v0
				c-10.2-7.4-12.4-21.6-5.1-31.8l109.5-151.1C391.5,110.4,405.7,108.2,415.9,115.5z"/>
			<linearGradient id="SVGID_17_" gradientUnits="userSpaceOnUse" x1="398.7341" y1="-85.4485" x2="594.5687" y2="-85.4485">
				<stop  offset="1.118836e-07" style="stop-color:#FBB040"/>
				<stop  offset="0.4647" style="stop-color:#FBAE40"/>
				<stop  offset="0.632" style="stop-color:#FBA741"/>
				<stop  offset="0.7513" style="stop-color:#FC9C42"/>
				<stop  offset="0.8478" style="stop-color:#FD8B44"/>
				<stop  offset="0.9295" style="stop-color:#FE7547"/>
				<stop  offset="1" style="stop-color:#FF5B4A"/>
			</linearGradient>
			<path class="st13" d="M588.9-212.8L588.9-212.8c6.1,4.4,7.4,12.9,3,19L423.4,38.8c-4.4,6.1-12.9,7.4-19,3l0,0
				c-6.1-4.4-7.4-12.9-3-19l168.6-232.6C574.3-215.8,582.9-217.2,588.9-212.8z"/>
			<linearGradient id="SVGID_18_" gradientUnits="userSpaceOnUse" x1="440.3571" y1="300.8024" x2="636.1917" y2="300.8024">
				<stop  offset="1.118836e-07" style="stop-color:#FBB040"/>
				<stop  offset="0.4647" style="stop-color:#FBAE40"/>
				<stop  offset="0.632" style="stop-color:#FBA741"/>
				<stop  offset="0.7513" style="stop-color:#FC9C42"/>
				<stop  offset="0.8478" style="stop-color:#FD8B44"/>
				<stop  offset="0.9295" style="stop-color:#FE7547"/>
				<stop  offset="1" style="stop-color:#FF5B4A"/>
			</linearGradient>
			<path class="st14" d="M630.6,173.5L630.6,173.5c6.1,4.4,7.4,12.9,3,19L465,425.1c-4.4,6.1-12.9,7.4-19,3l0,0
				c-6.1-4.4-7.4-12.9-3-19l168.6-232.6C616,170.4,624.5,169.1,630.6,173.5z"/>
			<g class="st2">
				
					<image style="overflow:visible;opacity:0.6;" width="967" height="1234" xlink:href="1FF680CC.png"  transform="matrix(0.24 0 0 0.24 349.92 -49.36)">
				</image>
				<g>
					<linearGradient id="SVGID_19_" gradientUnits="userSpaceOnUse" x1="362.0156" y1="91.7414" x2="557.8502" y2="91.7414">
						<stop  offset="1.118836e-07" style="stop-color:#FBB040"/>
						<stop  offset="0.4647" style="stop-color:#FBAE40"/>
						<stop  offset="0.632" style="stop-color:#FBA741"/>
						<stop  offset="0.7513" style="stop-color:#FC9C42"/>
						<stop  offset="0.8478" style="stop-color:#FD8B44"/>
						<stop  offset="0.9295" style="stop-color:#FE7547"/>
						<stop  offset="1" style="stop-color:#FF5B4A"/>
					</linearGradient>
					<path class="st15" d="M552.2-35.6L552.2-35.6c6.1,4.4,7.4,12.9,3,19L386.6,216c-4.4,6.1-12.9,7.4-19,3l0,0
						c-6.1-4.4-7.4-12.9-3-19L533.2-32.5C537.6-38.6,546.1-40,552.2-35.6z"/>
				</g>
			</g>
			<g class="st2">
				
					<image style="overflow:visible;opacity:0.6;" width="418" height="487" xlink:href="1FF680C4.png"  transform="matrix(0.24 0 0 0.24 263.1483 234.4283)">
				</image>
				<g>
					<linearGradient id="SVGID_20_" gradientUnits="userSpaceOnUse" x1="270.6674" y1="288.6417" x2="348.7074" y2="288.6417">
						<stop  offset="1.118836e-07" style="stop-color:#FBB040"/>
						<stop  offset="0.4647" style="stop-color:#FBAE40"/>
						<stop  offset="0.632" style="stop-color:#FBA741"/>
						<stop  offset="0.7513" style="stop-color:#FC9C42"/>
						<stop  offset="0.8478" style="stop-color:#FD8B44"/>
						<stop  offset="0.9295" style="stop-color:#FE7547"/>
						<stop  offset="1" style="stop-color:#FF5B4A"/>
					</linearGradient>
					<path class="st16" d="M341.7,244.5L341.7,244.5c7.6,5.5,9.3,16.1,3.8,23.7L301.3,329c-5.5,7.6-16.1,9.3-23.7,3.8l0,0
						c-7.6-5.5-9.3-16.1-3.8-23.7l44.2-60.9C323.5,240.7,334.1,239,341.7,244.5z"/>
				</g>
			</g>
		</g>
		<g>
			<defs>
				<rect id="SVGID_21_" width="561.7" height="374.5"/>
			</defs>
			<clipPath id="SVGID_22_">
				<use xlink:href="#SVGID_21_"  style="overflow:visible;"/>
			</clipPath>
		</g>
	</g>
</g>
</svg>
