<?xml version="1.0" encoding="utf-8"?>
<!-- Generator: Adobe Illustrator 24.0.2, SVG Export Plug-In . SVG Version: 6.00 Build 0)  -->
<svg version="1.1" id="Layer_1" xmlns="http://www.w3.org/2000/svg" xmlns:xlink="http://www.w3.org/1999/xlink" x="0px" y="0px"
	 viewBox="0 0 621.1 612.1" style="enable-background:new 0 0 621.1 612.1;" xml:space="preserve">
<style type="text/css">
	.st0{fill:url(#SVGID_1_);}
	.st1{fill:url(#XMLID_3_);}
	.st2{fill:url(#XMLID_4_);}
	.st3{fill:url(#XMLID_5_);}
	.st4{fill:url(#XMLID_6_);}
	.st5{fill:url(#XMLID_7_);}
	.st6{fill:url(#XMLID_8_);}
	.st7{fill:url(#XMLID_9_);}
	.st8{fill:url(#XMLID_10_);}
</style>
<g id="XMLID_89_">
	
		<image style="overflow:visible;opacity:0.75;" width="452" height="452" xlink:href="EAC27867.png"  transform="matrix(1 0 0 1 77 16.1)">
	</image>
	<g>
		<g>
			
				<image style="overflow:visible;opacity:0.9;enable-background:new    ;" width="428" height="428" xlink:href="EAC27864.png"  transform="matrix(1 0 0 1 84 23.1)">
			</image>
			<g>
				
					<linearGradient id="SVGID_1_" gradientUnits="userSpaceOnUse" x1="187.6676" y1="261.3362" x2="417.1561" y2="582.3201" gradientTransform="matrix(1 0 0 1 0 -178)">
					<stop  offset="3.389831e-03" style="stop-color:#262262"/>
					<stop  offset="8.404489e-02" style="stop-color:#282467"/>
					<stop  offset="0.4583" style="stop-color:#2C2B7C"/>
					<stop  offset="0.7768" style="stop-color:#2E2F8A"/>
					<stop  offset="1" style="stop-color:#2E3192"/>
				</linearGradient>
				<path class="st0" d="M323.4,28.3C208,14.1,102.9,96.2,88.7,211.7s68,220.5,183.4,234.7c115.5,14.2,220.5-68,234.7-183.4
					C521,147.5,438.9,42.4,323.4,28.3z M490.4,274.1c-5.3-0.5-10.1,3.4-10.7,8.7c-0.4,4.5,2.2,8.5,6.2,10c-1.4,4.7-2.9,9.2-4.6,13.7
					l-93.8-43.1l-64.7-19.2c0.3-1.1,0.6-2.2,0.8-3.4l65.8,15.2l103.1,5.4C491.9,265.7,491.2,269.9,490.4,274.1z M475,321.2
					c-0.2-0.1-0.3-0.2-0.5-0.3c-5-1.9-10.7,0.7-12.5,5.7c-1.7,4.4,0.1,9.2,3.9,11.7c-2.6,4.3-5.3,8.5-8.2,12.6l-79.9-65.6l-57.6-35
					c0.6-1.1,1.2-2.3,1.6-3.4l60.2,30.7l98.9,30.3C479,312.4,477.1,316.9,475,321.2z M362.6,421.4c-2.3-4.9-8.1-7-13-4.7
					c-4.3,2-6.4,6.7-5.3,11.1c-4.3,1.1-8.7,2-13.1,2.7l-10.7-103.1l-16.3-65.3c1.2-0.3,2.2-0.7,3.3-1.1l20.3,64.2l48,91.9
					c-4.2,1.8-8.5,3.5-12.9,5.1C362.8,422,362.7,421.7,362.6,421.4z M309.7,432.1c-0.9-5.3-6-8.8-11.3-7.9c-4.5,0.8-7.7,4.6-8,9
					c-5-0.2-10-0.5-15.1-1.1l18.7-102l2.7-67.3c1.5,0.1,3.1,0,4.6-0.2l4.2,67.2l24.3,100.9c-6.6,1.1-13.3,1.8-20.1,2.3
					C309.7,432.7,309.7,432.4,309.7,432.1z M203.9,398.6c-4.4-1.6-9.2,0.3-11.6,4.1c-3.3-2.1-6.5-4.3-9.7-6.7l66.2-79.7L284,259
					c1.1,0.7,2.2,1.2,3.4,1.7l-31,59.8l-31.1,99.1c-5.5-2.2-10.9-4.6-16.1-7.3c0.2-0.4,0.5-0.9,0.6-1.3
					C211.7,405.9,209,400.4,203.9,398.6z M118.1,288.3c-2.1-4.2-6.7-6.2-11-5.1c-1-4.3-1.9-8.5-2.6-12.9l102.7-10.8l65.4-16.4
					c0.3,1.2,0.7,2.3,1.1,3.5l-64.2,20.8l-91.4,48.5c-2-4.6-3.9-9.3-5.5-14c0.4-0.1,0.8-0.2,1.1-0.4
					C118.5,299,120.5,293.1,118.1,288.3z M105.8,197.6c0.5,0.1,0.9,0.2,1.4,0.2c5.4,0.3,10-3.8,10.3-9.2c0.3-4.6-2.7-8.6-6.9-9.9
					c1.2-4,2.6-7.9,4-11.8l93.6,43l64.7,19.3c-0.3,1.1-0.6,2.2-0.8,3.4l-65.9-15.2L103.1,212C104,207.3,104.8,202.4,105.8,197.6z
					 M121.7,151.1c0.4,0.2,0.9,0.4,1.3,0.6c5.1,1.7,10.6-1.1,12.3-6.2c1.4-4.4-0.4-9.1-4.2-11.4c2.4-3.8,4.8-7.5,7.4-11.2l79.5,65.3
					l57.8,35.1c-0.7,1.1-1.2,2.2-1.7,3.4l-60.3-30.8l-98.6-30.2C117.1,160.7,119.3,155.9,121.7,151.1z M234.1,53.7
					c2.5,4.8,8.4,6.6,13.1,4.1c4.2-2.2,6.1-6.9,4.9-11.3c4.1-1,8.3-1.8,12.5-2.5l10.6,102l16.4,65.7c-1.1,0.3-2.2,0.7-3.3,1.1
					l-20.5-64.7l-47.6-91c4.3-1.8,8.7-3.6,13.1-5.1C233.6,52.6,233.8,53.2,234.1,53.7z M102.1,249.4c0.4,0,0.9,0,1.3-0.1
					c5.3-1.1,8.7-6.2,7.6-11.5c-0.9-4.5-4.8-7.6-9.1-7.8c0.2-5.5,0.6-10.9,1.3-16.5l101.4,19l67.5,3c-0.1,1.6-0.1,3.1,0.1,4.7
					l-67.4,4.3l-100.5,24.4C103.2,262.5,102.5,256,102.1,249.4z M294.4,211.3l-4.2-67.7l-24.1-99.8c5.6-0.9,11.3-1.6,17.1-2
					c0,0.6,0.1,1.2,0.2,1.8c1.2,5.2,6.4,8.5,11.7,7.4c4.6-1,7.7-5.1,7.6-9.6c5.8,0.2,11.6,0.6,17.5,1.2l-18.5,100.8l-2.7,67.8
					C297.4,211.1,295.9,211.1,294.4,211.3z M345,55.8c4.5,0.5,8.5-2,10.2-6c4.6,1.4,9.1,2.9,13.5,4.6l-43.5,92.9l-19.8,64.8
					c-1.2-0.4-2.4-0.6-3.7-0.8l15-66.1l5-102.5c5,0.6,9.9,1.5,14.8,2.4C335.9,50.4,339.7,55.2,345,55.8z M389.7,73.9
					c4.2,1.7,8.8,0.2,11.4-3.2c3.9,2.4,7.7,4.9,11.4,7.6l-65.6,79L311.4,215c-1.1-0.7-2.2-1.2-3.4-1.7l31.2-60.2L370,55
					c4.8,1.9,9.6,4,14.2,6.3C382.3,66.3,384.7,71.9,389.7,73.9z M428.3,102.7c3.6,2.7,8.5,2.5,11.9-0.2c4.1,4.3,7.9,8.8,11.6,13.5
					l-84.9,57.8l-50,45.7c-1-1.1-2-2.1-3.2-3l45.4-50.3l54.5-87c4.3,3.2,8.5,6.5,12.6,10C423.1,93.5,424,99.5,428.3,102.7z
					 M458.2,140.5c2.8,3.5,7.6,4.6,11.6,2.8c2.4,4.4,4.7,8.9,6.8,13.5l-96.5,35.6l-59.5,32.2c-0.6-1-1.2-2-1.9-2.9l57.5-35.8
					l76.5-68.7c2.5,3.2,4.8,6.4,7.1,9.7C455.6,130.2,454.9,136.3,458.2,140.5z M477.6,184.7c1.8,4.2,6.3,6.4,10.6,5.6
					c1.1,4.3,2,8.7,2.8,13.1l-102.4,10.7L323,230.5c-0.3-1.2-0.7-2.3-1.2-3.4l64.4-20.8l90.9-48.2c2,4.5,3.8,9.1,5.4,13.7l0,0
					C477.6,174,475.4,179.7,477.6,184.7z M493.3,222.6c-0.2,0-0.3,0-0.4,0c-5.3,0.8-9,5.8-8.1,11.2c0.7,4.6,4.6,7.9,9,8.2
					c-0.1,6-0.6,12-1.3,18l-101.3-19l-67.5-3c0.1-1.6,0-3.1-0.2-4.7L391,229l100.2-24.3C492.1,210.6,492.9,216.6,493.3,222.6z
					 M189.6,73.9c0.3,0.4,0.6,0.9,1,1.3c3.6,4,9.8,4.3,13.8,0.7c3.4-3.1,4.1-8,2-11.9c4.2-2.2,8.4-4.3,12.7-6.2l35,96.5l31.8,59.7
					c-1.1,0.6-2.2,1.3-3.2,2.1l-36.3-57.2L176.8,83C180.9,79.8,185.2,76.8,189.6,73.9z M175.7,83.9l58.6,84.3l46.1,49.6
					c-1.1,1-2.1,2-2.9,3.1L227,175.8l-87.6-54.1c3.3-4.5,6.8-9,10.5-13.2c0.4,0.4,0.8,0.7,1.3,1c4.5,2.9,10.6,1.6,13.5-2.9
					c2.5-3.9,1.9-8.9-1.2-12.1C167.3,90.9,171.4,87.3,175.7,83.9z M133.5,344.4c0.5-0.3,0.9-0.6,1.4-1c4.1-3.5,4.5-9.7,0.9-13.8
					c-3.1-3.5-8.2-4.3-12.1-2.1c-1.8-3.5-3.5-7-5.1-10.5l97-35.8l59.2-32c0.5,1,1.2,2,1.9,3l-57.2,35.7L142.4,357
					C139.3,352.9,136.3,348.7,133.5,344.4z M143.3,358.1l85.5-58.3l49.7-45.4c1,1.1,2,2.1,3.2,3l-45.1,50l-55.1,87.9
					c-5.1-3.8-10-7.8-14.7-12c0.3-0.4,0.7-0.7,1-1.2c3-4.5,1.9-10.5-2.6-13.5c-3.9-2.6-8.9-2.1-12.2,1
					C149.7,365.9,146.4,362,143.3,358.1z M257.7,429.3c0.1-0.3,0.2-0.7,0.2-1c0.4-5.4-3.6-10.1-8.9-10.5c-4.6-0.4-8.6,2.5-10,6.6
					c-4.2-1.3-8.3-2.7-12.4-4.3l43.9-93.9l19.6-64.3c1.2,0.4,2.4,0.6,3.7,0.8L279,328.3L274,432l0,0
					C268.4,431.3,263.1,430.4,257.7,429.3z M407.3,400c-0.2-0.4-0.5-0.8-0.8-1.1c-3.4-4.1-9.6-4.7-13.7-1.2
					c-3.7,3.1-4.5,8.4-2.1,12.4c-4.4,2.4-9,4.6-13.6,6.7l-35.3-97.4L310.2,260c1.1-0.6,2.2-1.3,3.3-2.1l36.1,56.9l69.9,76.5
					C415.5,394.2,411.4,397.2,407.3,400z M420.5,390.3l-59-85l-45.9-49.4c1-1,2-2,2.9-3.2l50.4,44.9l88,54.4
					c-3.5,4.8-7.2,9.5-11.1,14c-0.3-0.3-0.6-0.5-0.9-0.8c-4.4-3.1-10.5-2.1-13.6,2.3c-2.8,3.9-2.3,9.1,1,12.5
					C428.5,383.6,424.5,387,420.5,390.3z"/>
			</g>
		</g>
	</g>
</g>
<g id="XMLID_36_">
	
		<image style="overflow:visible;opacity:0.75;" width="467" height="410" xlink:href="EAC27863.png"  transform="matrix(1 0 0 1 87 190.1)">
	</image>
	<g>
		<g>
			
				<image style="overflow:visible;opacity:0.9;enable-background:new    ;" width="442" height="386" xlink:href="EAC27865.png"  transform="matrix(1 0 0 1 94 197.1)">
			</image>
			<g>
				<g>
					
						<linearGradient id="XMLID_3_" gradientUnits="userSpaceOnUse" x1="232.2" y1="716.2" x2="290.7" y2="716.2" gradientTransform="matrix(1 0 0 1 0 -178)">
						<stop  offset="0" style="stop-color:#EE2929"/>
						<stop  offset="0.1436" style="stop-color:#EE3029"/>
						<stop  offset="0.3046" style="stop-color:#EF412A"/>
						<stop  offset="0.474" style="stop-color:#F1582D"/>
						<stop  offset="0.6492" style="stop-color:#F37231"/>
						<stop  offset="0.827" style="stop-color:#F78F37"/>
						<stop  offset="1" style="stop-color:#FBB040"/>
					</linearGradient>
					<path id="XMLID_109_" class="st1" d="M232.2,579.7c2.7-33.5,24.2-71.2,58.5-83C269.2,508.2,245.2,548.9,232.2,579.7z"/>
					<g id="XMLID_101_">
						
							<linearGradient id="XMLID_4_" gradientUnits="userSpaceOnUse" x1="257.6564" y1="745.2821" x2="400.1499" y2="470.7945" gradientTransform="matrix(1 0 0 1 0 -178)">
							<stop  offset="0" style="stop-color:#EE2929"/>
							<stop  offset="0.1436" style="stop-color:#EE3029"/>
							<stop  offset="0.3046" style="stop-color:#EF412A"/>
							<stop  offset="0.474" style="stop-color:#F1582D"/>
							<stop  offset="0.6492" style="stop-color:#F37231"/>
							<stop  offset="0.827" style="stop-color:#F78F37"/>
							<stop  offset="1" style="stop-color:#FBB040"/>
						</linearGradient>
						<path id="XMLID_108_" class="st2" d="M532.2,216.7c-2.8,56.1-11.8,98.4-25.7,131.3l0,0c-8.9,21-19.7,38.1-32.2,52.7
							c-17.5,20.4-38.2,35.6-61.1,49c-48.3,28.2-132.1,15.1-171.4,83.6c-2.9,5.1-5.6,10.7-8,16.8c-3.1,7.8-5.7,16.4-7.8,25.9
							c-0.3,1.2-0.5,2.5-0.8,3.7c-0.8-1-1.6-2-2.4-3.1C155.9,490,186.5,416,247.2,350.7c60.2-64.8,92.3-53.6,121.7-116.9
							c0.4-0.9,0.9-1.8,1.4-2.6c2.2-3.7,5.4-6.9,9.6-7.4c29.2-3.4,10.8,70.1-31.6,113.9c-3.7,3.8-6.3,8.5-7.6,13.7
							c-0.7,3-1.1,6-1.2,8.9c-0.9,35.6,45.3,61.3,92.6,20.5c10.2-11.7,19.6-24.7,28.1-38.3c24-38.7,40-81.9,42.5-111.6
							c0.7-8.1,3.4-15.9,8-22.5c2.2-3.1,4.2-5.2,6-6.4C527.3,195.1,532.2,216.7,532.2,216.7z"/>
						
							<linearGradient id="XMLID_5_" gradientUnits="userSpaceOnUse" x1="185.7367" y1="699.6397" x2="130.2402" y2="548.1492" gradientTransform="matrix(1 0 0 1 0 -178)">
							<stop  offset="0" style="stop-color:#F15A29"/>
							<stop  offset="0.2231" style="stop-color:#F15D29"/>
							<stop  offset="0.405" style="stop-color:#F2662B"/>
							<stop  offset="0.5724" style="stop-color:#F3732E"/>
							<stop  offset="0.7311" style="stop-color:#F58532"/>
							<stop  offset="0.8822" style="stop-color:#F89A39"/>
							<stop  offset="1" style="stop-color:#FBB040"/>
						</linearGradient>
						<path id="XMLID_107_" class="st3" d="M192.5,543.7c-1-1-2-1.9-2.9-2.9c-90.3-88.2-67.7-113.8-78.8-172.1
							c-2.4-12.6-6.4-26.8-13.5-43.6c35.5,75,90,99.9,90,99.9C171.3,455.7,177.3,512.7,192.5,543.7z"/>
						
							<linearGradient id="XMLID_6_" gradientUnits="userSpaceOnUse" x1="190.5897" y1="714.7728" x2="303.3504" y2="497.5602" gradientTransform="matrix(1 0 0 1 0 -178)">
							<stop  offset="0" style="stop-color:#EE2929"/>
							<stop  offset="0.3018" style="stop-color:#EE2D29"/>
							<stop  offset="0.4592" style="stop-color:#EF382A"/>
							<stop  offset="0.5832" style="stop-color:#EF472B"/>
							<stop  offset="0.6899" style="stop-color:#F15A2D"/>
							<stop  offset="0.7855" style="stop-color:#F36F30"/>
							<stop  offset="0.873" style="stop-color:#F58535"/>
							<stop  offset="0.9528" style="stop-color:#F99E3B"/>
							<stop  offset="1" style="stop-color:#FBB040"/>
						</linearGradient>
						<path id="XMLID_106_" class="st4" d="M370.3,231.2c-0.5,10.2,3.1,36-5.6,52.5c-23.2,44-18.9,35.5-98,103
							c-76.6,65.4-60.4,133.3-43.9,189.9C155.9,490,186.5,416,247.2,350.7c60.2-64.8,92.3-53.6,121.7-116.9
							C369.3,233,369.8,232.1,370.3,231.2z"/>
						
							<linearGradient id="XMLID_7_" gradientUnits="userSpaceOnUse" x1="291.3838" y1="769.6294" x2="391.827" y2="576.144" gradientTransform="matrix(1 0 0 1 0 -178)">
							<stop  offset="0" style="stop-color:#EE2929"/>
							<stop  offset="0.3018" style="stop-color:#EE2D29"/>
							<stop  offset="0.4592" style="stop-color:#EF382A"/>
							<stop  offset="0.5832" style="stop-color:#EF472B"/>
							<stop  offset="0.6899" style="stop-color:#F15A2D"/>
							<stop  offset="0.7855" style="stop-color:#F36F30"/>
							<stop  offset="0.873" style="stop-color:#F58535"/>
							<stop  offset="0.9528" style="stop-color:#F99E3B"/>
							<stop  offset="1" style="stop-color:#FBB040"/>
						</linearGradient>
						<path id="XMLID_105_" class="st5" d="M506.5,348c-21.3,50.3-54,78.7-93.3,101.7C356.7,482.8,251.6,459.2,226,576l-3.2,0.7
							c7.4-91.9,87.9-129.9,147.8-141.6C457.4,418,505.3,349.2,506.5,348z"/>
						
							<linearGradient id="XMLID_8_" gradientUnits="userSpaceOnUse" x1="457.653" y1="557.7183" x2="517.7671" y2="441.9195" gradientTransform="matrix(1 0 0 1 0 -178)">
							<stop  offset="0" style="stop-color:#EE2929"/>
							<stop  offset="0.1502" style="stop-color:#F04F2C"/>
							<stop  offset="0.4361" style="stop-color:#F47C33"/>
							<stop  offset="0.6833" style="stop-color:#F8983A"/>
							<stop  offset="0.8794" style="stop-color:#FAA93E"/>
							<stop  offset="1" style="stop-color:#FBB040"/>
						</linearGradient>
						<path id="XMLID_104_" class="st6" d="M532.2,216.7c-2.8,56.1-11.8,98.4-25.7,131.3l0,0c-8.9,21-19.7,38.1-32.2,52.7
							c29.1-56.7,45-163.9,42.5-198.8C527.3,195.1,532.2,216.7,532.2,216.7z"/>
						
							<linearGradient id="XMLID_9_" gradientUnits="userSpaceOnUse" x1="429.9301" y1="560.662" x2="429.9478" y2="560.6281" gradientTransform="matrix(1 0 0 1 0 -178)">
							<stop  offset="0" style="stop-color:#EE2929"/>
							<stop  offset="0.1436" style="stop-color:#EE3029"/>
							<stop  offset="0.3046" style="stop-color:#EF412A"/>
							<stop  offset="0.474" style="stop-color:#F1582D"/>
							<stop  offset="0.6492" style="stop-color:#F37231"/>
							<stop  offset="0.827" style="stop-color:#F78F37"/>
							<stop  offset="1" style="stop-color:#FBB040"/>
						</linearGradient>
						<path id="XMLID_103_" class="st7" d="M430,382.6C430,382.6,429.9,382.6,430,382.6C429.9,382.6,429.9,382.6,430,382.6
							L430,382.6z"/>
						
							<linearGradient id="XMLID_10_" gradientUnits="userSpaceOnUse" x1="110.7" y1="632.85" x2="189.5" y2="632.85" gradientTransform="matrix(1 0 0 1 0 -178)">
							<stop  offset="0" style="stop-color:#F15A29"/>
							<stop  offset="0.2231" style="stop-color:#F15D29"/>
							<stop  offset="0.405" style="stop-color:#F2662B"/>
							<stop  offset="0.5724" style="stop-color:#F3732E"/>
							<stop  offset="0.7311" style="stop-color:#F58532"/>
							<stop  offset="0.8822" style="stop-color:#F89A39"/>
							<stop  offset="1" style="stop-color:#FBB040"/>
						</linearGradient>
						<path id="XMLID_102_" class="st8" d="M189.5,540.9c-90.3-88.2-67.7-113.8-78.8-172.1c17.2,24.8,0.7,32.1,49.5,86.1
							C181.2,478,177.4,506.6,189.5,540.9z"/>
					</g>
				</g>
			</g>
		</g>
	</g>
</g>
</svg>
